<?xml version="1.0" encoding="utf-8"?>
<svg xmlns="http://www.w3.org/2000/svg" xmlns:xlink="http://www.w3.org/1999/xhtml">
    <!--

    Скопировать эту конструкцию:

    <symbol id="test" xmlns="http://www.w3.org/2000/svg" viewBox="0 0 512 512">

    </symbol>


    - id="test" - поменять значение id
    - viewBox="0 0 640 512" - поменять 640 512
    - вставить тег <path d=""/>


    -->
    <symbol id="plus" viewBox="0 0 448 512" xmlns="http://www.w3.org/2000/svg">
        <path d="M416 208H272V64c0-17.67-14.33-32-32-32h-32c-17.67 0-32 14.33-32 32v144H32c-17.67 0-32 14.33-32 32v32c0 17.67 14.33 32 32 32h144v144c0 17.67 14.33 32 32 32h32c17.67 0 32-14.33 32-32V304h144c17.67 0 32-14.33 32-32v-32c0-17.67-14.33-32-32-32z"/>
    </symbol>
    <symbol id="minus" xmlns="http://www.w3.org/2000/svg" viewBox="0 0 448 512">
        <path d="M416 208H32c-17.67 0-32 14.33-32 32v32c0 17.67 14.33 32 32 32h384c17.67 0 32-14.33 32-32v-32c0-17.67-14.33-32-32-32z"/>
    </symbol>
    <symbol id="bars" xmlns="http://www.w3.org/2000/svg" viewBox="0 0 256 512">
        <path d="M16 132h416c8.837 0 16-7.163 16-16V76c0-8.837-7.163-16-16-16H16C7.163 60 0 67.163 0 76v40c0 8.837 7.163 16 16 16zm0 160h416c8.837 0 16-7.163 16-16v-40c0-8.837-7.163-16-16-16H16c-8.837 0-16 7.163-16 16v40c0 8.837 7.163 16 16 16zm0 160h416c8.837 0 16-7.163 16-16v-40c0-8.837-7.163-16-16-16H16c-8.837 0-16 7.163-16 16v40c0 8.837 7.163 16 16 16z"/>
    </symbol>
    <symbol id="arrow-up" xmlns="http://www.w3.org/2000/svg" viewBox="0 0 448 512">
        <path d="M34.9 289.5l-22.2-22.2c-9.4-9.4-9.4-24.6 0-33.9L207 39c9.4-9.4 24.6-9.4 33.9 0l194.3 194.3c9.4 9.4 9.4 24.6 0 33.9L413 289.4c-9.5 9.5-25 9.3-34.3-.4L264 168.6V456c0 13.3-10.7 24-24 24h-32c-13.3 0-24-10.7-24-24V168.6L69.2 289.1c-9.3 9.8-24.8 10-34.3.4z"/>
    </symbol>
</svg>