<?xml version="1.0" encoding="utf-8"?>
<!-- Generator: Adobe Illustrator 21.0.2, SVG Export Plug-In . SVG Version: 6.00 Build 0)  -->
<svg version="1.0" id="Layer_1" xmlns="http://www.w3.org/2000/svg" xmlns:xlink="http://www.w3.org/1999/xlink" x="0px" y="0px"
	 viewBox="0 0 536 661.7" style="enable-background:new 0 0 536 661.7;" xml:space="preserve">
<style type="text/css">
	.st0{fill:#284466;}
	.st1{opacity:0.8;fill:#FCCE95;}
	.st2{opacity:0.2;fill:#FFFFFF;}
	.st3{opacity:0.8;fill:#6DA0BF;}
	.st4{opacity:0.8;fill:#D19595;}
	.st5{fill:#FFFFFF;}
	.st6{fill:#CCCCCC;}
	.st7{fill:#6DA0BF;}
	.st8{opacity:0.8;}
	.st9{fill:#D19595;}
	.st10{fill:#FCCE95;}
</style>
<path class="st0" d="M15.8,271.6"/>
<path class="st1" d="M511.8,205.4c0-63.2-43.4-114.4-96.9-114.4c-53.5,0-96.9,51.2-96.9,114.4c0,63.2,43.4,114.4,96.9,114.4
	c0.3,0,0.7,0,1,0l-8.1,14.4H448l-11.7-17.2C479.5,305.4,511.8,259.8,511.8,205.4z"/>
<circle class="st2" cx="445.7" cy="138.6" r="17.8"/>
<path class="st3" d="M228.7,211c0-60.4-49-109.4-109.4-109.4C58.9,101.7,10,150.6,10,211c0,57.5,44.3,104.5,100.6,109l-14.4,25.8
	h40.2l-17.2-25.4c0.1,0,0.2,0,0.3,0C179.8,320.4,228.7,271.5,228.7,211z"/>
<circle class="st2" cx="167.3" cy="166.3" r="17.8"/>
<path class="st4" d="M369.5,258.4c0-55.6-45.1-100.7-100.7-100.7c-55.6,0-100.7,45.1-100.7,100.7c0,52.6,40.4,95.8,91.8,100.3
	l-16.6,23.8h41l-15.8-23.4c0.1,0,0.2,0,0.3,0C324.4,359.1,369.5,314,369.5,258.4z"/>
<circle class="st2" cx="308.9" cy="217.2" r="16.4"/>
<g>
	<path class="st5" d="M134,232.8H150v7.1H134v25.8h-8.4v-25.8h-48v-4.8l47.3-71.5h9.2V232.8z M87.9,232.8h37.7v-58.3l-3.7,6.5
		L87.9,232.8z"/>
</g>
<g>
	<path class="st5" d="M429.6,221.6h15.9v7.1h-15.9v25.8h-8.4v-25.8h-48V224l47.3-71.5h9.2V221.6z M383.4,221.6h37.7v-58.3l-3.7,6.5
		L383.4,221.6z"/>
</g>
<g>
	<path class="st5" d="M297.2,269.6c0,12.9-2.4,22.6-7.1,29.3c-4.7,6.7-11.7,10-20.8,10c-9,0-15.9-3.3-20.7-9.8
		c-4.8-6.5-7.3-16-7.4-28.5v-16.3c0-12.8,2.4-22.5,7.1-29.1c4.8-6.6,11.7-9.9,20.8-9.9c9,0,15.9,3.2,20.7,9.5
		c4.8,6.4,7.2,15.7,7.4,28.1V269.6z M289.7,253.3c0-10.4-1.7-18.3-5.1-23.7c-3.4-5.3-8.5-8-15.4-8c-6.8,0-11.9,2.6-15.3,7.8
		c-3.4,5.2-5.2,12.9-5.3,23.1v17.9c0,10.4,1.8,18.3,5.3,23.8c3.5,5.5,8.6,8.3,15.4,8.3c6.7,0,11.7-2.7,15.2-8.1
		c3.4-5.4,5.2-13.3,5.2-23.7V253.3z"/>
</g>
<rect x="112.7" y="557.4" class="st6" width="4.9" height="58.2"/>
<rect x="262.2" y="557.4" class="st6" width="4.9" height="58.2"/>
<rect x="425.7" y="557.4" class="st6" width="4.9" height="58.2"/>
<g>
	<path class="st7" d="M108,523.3c-0.3,2.3-1.1,4-2.5,5.2s-3.3,1.8-5.6,1.8c-2.5,0-4.6-0.9-6.1-2.7c-1.5-1.8-2.3-4.2-2.3-7.3v-2.1
		c0-2,0.4-3.7,1.1-5.2c0.7-1.5,1.7-2.7,3-3.5c1.3-0.8,2.8-1.2,4.5-1.2c2.3,0,4.1,0.6,5.5,1.9s2.2,3,2.4,5.3h-2.8
		c-0.2-1.7-0.8-2.9-1.6-3.7c-0.8-0.8-2-1.1-3.4-1.1c-1.8,0-3.2,0.7-4.2,2c-1,1.3-1.5,3.2-1.5,5.7v2.1c0,2.3,0.5,4.2,1.5,5.5
		s2.3,2.1,4.1,2.1c1.6,0,2.8-0.4,3.6-1.1c0.8-0.7,1.4-1.9,1.7-3.7H108z"/>
	<path class="st7" d="M126.2,511h-6.9V530h-2.8V511h-6.9v-2.3h16.6V511z"/>
	<path class="st7" d="M132.2,521.7v8.4h-2.8v-21.4h7.9c2.3,0,4.2,0.6,5.5,1.8c1.3,1.2,2,2.8,2,4.7c0,2.1-0.6,3.7-1.9,4.8
		c-1.3,1.1-3.2,1.7-5.6,1.7H132.2z M132.2,519.4h5.1c1.5,0,2.7-0.4,3.5-1.1c0.8-0.7,1.2-1.7,1.2-3.1c0-1.3-0.4-2.3-1.2-3.1
		c-0.8-0.8-1.9-1.2-3.3-1.2h-5.2V519.4z"/>
	<path class="st7" d="M158.2,524.4h-9l-2,5.6h-2.9l8.2-21.4h2.5l8.2,21.4h-2.9L158.2,524.4z M150,522.1h7.3l-3.6-10L150,522.1z"/>
	<path class="st7" d="M182.4,530h-2.8v-9.9h-10.8v9.9H166v-21.4h2.8v9.2h10.8v-9.2h2.8V530z"/>
	<path class="st7" d="M200.9,508.6h2.8V530h-2.8v-16.5L190.4,530h-2.8v-21.4h2.8v16.5L200.9,508.6z"/>
	<path class="st7" d="M209,508.6h2.8v19.1h10.6v-19.1h2.8v19h2.2l-0.3,7.5h-2.5V530H209V508.6z"/>
	<path class="st7" d="M243,524.4h-9l-2,5.6h-2.9l8.2-21.4h2.5l8.2,21.4H245L243,524.4z M234.9,522.1h7.3l-3.6-10L234.9,522.1z"/>
	<path class="st7" d="M274.7,530h-2.8v-9.9h-10.8v9.9h-2.8v-21.4h2.8v9.2h10.8v-9.2h2.8V530z"/>
	<path class="st7" d="M291.8,520.2h-9.3v7.6h10.8v2.3h-13.6v-21.4h13.5v2.3h-10.6v6.9h9.3V520.2z"/>
	<path class="st7" d="M320.7,530h-2.8v-9.9h-10.8v9.9h-2.8v-21.4h2.8v9.2h10.8v-9.2h2.8V530z"/>
	<path class="st7" d="M337.8,524.4h-9l-2,5.6h-2.9l8.2-21.4h2.5l8.2,21.4h-2.9L337.8,524.4z M329.7,522.1h7.3l-3.6-10L329.7,522.1z"
		/>
	<path class="st7" d="M359.2,508.6h2.8V530h-2.8v-16.5L348.6,530h-2.8v-21.4h2.8v16.5L359.2,508.6z M358.4,503.3
		c0,1.2-0.4,2.1-1.2,2.9c-0.8,0.7-1.9,1.1-3.2,1.1c-1.3,0-2.4-0.4-3.2-1.1c-0.8-0.7-1.2-1.7-1.2-2.9h2.2c0,0.7,0.2,1.2,0.6,1.6
		c0.4,0.4,0.9,0.6,1.6,0.6c0.7,0,1.2-0.2,1.6-0.6c0.4-0.4,0.6-0.9,0.6-1.6H358.4z"/>
	<path class="st7" d="M386.4,535.3h-2.8V530h-15.4v5.3h-2.8l0-7.6h1.7c0.9-1,1.7-2.4,2.2-4.2c0.5-1.7,0.9-3.7,1-5.8l0.5-9.2h12.8
		v19.1h2.8L386.4,535.3z M370.3,527.7h10.4V511h-7.2l-0.3,6.3c-0.1,2.5-0.5,4.6-1,6.3C371.7,525.3,371.1,526.7,370.3,527.7z"/>
	<path class="st7" d="M401.9,520.2h-9.3v7.6h10.8v2.3h-13.6v-21.4h13.5v2.3h-10.6v6.9h9.3V520.2z"/>
	<path class="st7" d="M423.3,530h-2.8v-9.9h-10.8v9.9h-2.8v-21.4h2.8v9.2h10.8v-9.2h2.8V530z"/>
	<path class="st7" d="M440.4,524.4h-9l-2,5.6h-2.9l8.2-21.4h2.5l8.2,21.4h-2.9L440.4,524.4z M432.3,522.1h7.3l-3.6-10L432.3,522.1z"
		/>
</g>
<polygon class="st6" points="425.7,334.1 425.7,336.5 425.7,337.3 425.7,484.5 430.5,484.5 430.5,337.3 430.5,336.5 430.5,334.1 "/>
<polygon class="st6" points="262.2,382.5 262.2,384.9 262.2,386.1 262.2,484.5 267,484.5 267,386.1 267,384.9 267,382.5 "/>
<polygon class="st6" points="112.7,345.9 112.7,348.8 112.7,350.7 112.7,484.5 117.5,484.5 117.5,350.7 117.5,348.8 117.5,345.9 "/>
<g class="st8">
	<path class="st9" d="M510.2,330.9c0.3,0.3,0.4,0.7,0.3,1.4l-0.8,13l10.2,8c0.1,0.1,0.2,0.2,0.4,0.4c0.2,0.3,0.4,0.6,0.4,0.9
		c0,0.3-0.1,0.6-0.3,0.8c-0.2,0.2-0.6,0.4-1,0.5l-12.6,3.2l-4.5,12.2c-0.1,0.4-0.3,0.7-0.6,0.9c-0.3,0.2-0.5,0.3-0.8,0.3
		c-0.3-0.1-0.6-0.2-0.8-0.5c-0.1-0.1-0.2-0.2-0.3-0.4l-6.9-11l-13-0.5c-0.6-0.1-1.1-0.2-1.3-0.5c-0.4-0.5-0.3-1.1,0.3-1.8l8.3-10
		l-3.5-12.5c-0.2-0.7-0.2-1.3,0.2-1.6c0.4-0.3,0.9-0.4,1.6-0.1l12.1,4.8l10.8-7.2C509.2,330.5,509.8,330.5,510.2,330.9z"/>
</g>
<g class="st8">
	<path class="st9" d="M189.9,632.5c-0.4,0-0.8-0.2-1.1-0.5l-16-15.4c-0.2-0.1-0.4-0.4-0.7-0.7c-0.3-0.3-0.8-0.9-1.4-1.7
		c-0.6-0.8-1.2-1.6-1.7-2.5c-0.5-0.9-1-1.9-1.4-3.1c-0.4-1.2-0.6-2.4-0.6-3.5c0-3.8,1.1-6.7,3.3-8.8c2.2-2.1,5.2-3.2,9-3.2
		c1.1,0,2.1,0.2,3.2,0.6c1.1,0.4,2.1,0.9,3.1,1.5c0.9,0.6,1.8,1.2,2.4,1.8c0.7,0.5,1.3,1.1,1.9,1.7c0.6-0.6,1.3-1.2,1.9-1.7
		c0.7-0.5,1.5-1.1,2.4-1.8c0.9-0.6,2-1.1,3.1-1.5c1.1-0.4,2.2-0.6,3.2-0.6c3.8,0,6.8,1.1,9,3.2c2.2,2.1,3.3,5.1,3.3,8.8
		c0,3.8-2,7.6-5.9,11.5L191,632C190.7,632.3,190.3,632.5,189.9,632.5z"/>
</g>
<g class="st8">
	<path class="st9" d="M491.4,492.6c-0.4,0-0.8-0.2-1.1-0.5l-16-15.4c-0.2-0.1-0.4-0.4-0.7-0.7c-0.3-0.3-0.8-0.9-1.4-1.7
		s-1.2-1.6-1.7-2.5c-0.5-0.9-1-1.9-1.4-3.1c-0.4-1.2-0.6-2.4-0.6-3.5c0-3.8,1.1-6.7,3.3-8.8c2.2-2.1,5.2-3.2,9-3.2
		c1.1,0,2.1,0.2,3.2,0.6c1.1,0.4,2.1,0.9,3.1,1.5c0.9,0.6,1.8,1.2,2.4,1.8c0.7,0.5,1.3,1.1,1.9,1.7c0.6-0.6,1.3-1.2,1.9-1.7
		c0.7-0.5,1.5-1.1,2.4-1.8c0.9-0.6,2-1.1,3.1-1.5c1.1-0.4,2.2-0.6,3.2-0.6c3.8,0,6.8,1.1,9,3.2c2.2,2.1,3.3,5.1,3.3,8.8
		c0,3.8-2,7.6-5.9,11.5l-15.9,15.4C492.2,492.5,491.8,492.6,491.4,492.6z"/>
</g>
<g class="st8">
	<path class="st9" d="M187.1,434.1c-0.6,0-1-0.2-1.4-0.6l-20.4-19.5c-0.2-0.2-0.5-0.5-0.9-0.8c-0.4-0.4-1-1.1-1.8-2.1
		c-0.8-1-1.6-2.1-2.2-3.2c-0.7-1.1-1.2-2.4-1.8-3.9c-0.5-1.5-0.8-3-0.8-4.5c0-4.7,1.4-8.5,4.2-11.1c2.8-2.7,6.6-4,11.5-4
		c1.4,0,2.7,0.2,4.1,0.7c1.4,0.5,2.7,1.1,3.9,1.9c1.2,0.8,2.3,1.5,3.1,2.2c0.9,0.7,1.7,1.4,2.5,2.2c0.8-0.8,1.6-1.5,2.5-2.2
		c0.9-0.7,1.9-1.4,3.1-2.2s2.5-1.4,3.9-1.9c1.4-0.5,2.8-0.7,4.1-0.7c4.9,0,8.7,1.3,11.5,4c2.8,2.7,4.2,6.4,4.2,11.1
		c0,4.8-2.5,9.6-7.5,14.6l-20.4,19.4C188.1,433.9,187.7,434.1,187.1,434.1z"/>
</g>
<g class="st8">
	<path class="st10" d="M373.6,388c-0.3,0-0.6-0.1-0.8-0.3L361.7,377c-0.1-0.1-0.3-0.2-0.5-0.5c-0.2-0.2-0.5-0.6-1-1.2
		s-0.9-1.1-1.2-1.7c-0.4-0.6-0.7-1.3-0.9-2.1c-0.3-0.8-0.4-1.7-0.4-2.4c0-2.6,0.8-4.6,2.3-6.1c1.5-1.5,3.6-2.2,6.2-2.2
		c0.7,0,1.5,0.1,2.2,0.4c0.8,0.3,1.5,0.6,2.1,1s1.2,0.8,1.7,1.2c0.5,0.4,0.9,0.8,1.3,1.2c0.4-0.4,0.9-0.8,1.3-1.2
		c0.5-0.4,1-0.8,1.7-1.2s1.4-0.8,2.1-1c0.8-0.3,1.5-0.4,2.2-0.4c2.6,0,4.7,0.7,6.2,2.2c1.5,1.5,2.3,3.5,2.3,6.1c0,2.6-1.4,5.3-4.1,8
		l-11.1,10.6C374.2,387.9,373.9,388,373.6,388z"/>
</g>
<g class="st8">
	<path class="st10" d="M42.1,321.3c0.3,0.3,0.4,0.7,0.3,1.4l-0.8,13l10.2,8c0.1,0.1,0.2,0.2,0.4,0.4c0.2,0.3,0.4,0.6,0.4,0.9
		c0,0.3-0.1,0.6-0.3,0.8c-0.2,0.2-0.6,0.4-1,0.5l-12.6,3.2l-4.5,12.2c-0.1,0.4-0.3,0.7-0.6,0.9c-0.3,0.2-0.5,0.3-0.8,0.3
		c-0.3-0.1-0.6-0.2-0.8-0.5c-0.1-0.1-0.2-0.2-0.3-0.4l-6.9-11l-13-0.5c-0.6-0.1-1.1-0.2-1.3-0.5c-0.4-0.5-0.3-1.1,0.3-1.8l8.3-10
		l-3.5-12.5c-0.2-0.7-0.2-1.3,0.2-1.6c0.4-0.3,0.9-0.4,1.6-0.1l12.1,4.8l10.8-7.2C41.1,320.9,41.7,320.8,42.1,321.3z"/>
</g>
<g>
	<path class="st7" d="M55.1,468.1c-0.6,0-1-0.2-1.4-0.6l-20.4-19.5c-0.2-0.2-0.5-0.5-0.9-0.8c-0.4-0.4-1-1.1-1.8-2.1
		c-0.8-1-1.6-2.1-2.2-3.2c-0.7-1.1-1.2-2.4-1.8-3.9c-0.5-1.5-0.8-3-0.8-4.5c0-4.7,1.4-8.5,4.2-11.1c2.8-2.7,6.6-4,11.5-4
		c1.4,0,2.7,0.2,4.1,0.7c1.4,0.5,2.7,1.1,3.9,1.9c1.2,0.8,2.3,1.5,3.1,2.2c0.9,0.7,1.7,1.4,2.5,2.2c0.8-0.8,1.6-1.5,2.5-2.2
		c0.9-0.7,1.9-1.4,3.1-2.2c1.2-0.8,2.5-1.4,3.9-1.9c1.4-0.5,2.8-0.7,4.1-0.7c4.9,0,8.7,1.3,11.5,4c2.8,2.7,4.2,6.4,4.2,11.1
		c0,4.8-2.5,9.6-7.5,14.6l-20.4,19.4C56.1,467.9,55.6,468.1,55.1,468.1z"/>
</g>
<g class="st8">
	<path class="st10" d="M365.2,576.8c0.4,0.5,0.6,1.3,0.6,2.4l-1.5,22.7l17.9,14.1c0.2,0.1,0.4,0.3,0.6,0.6c0.4,0.5,0.7,1,0.7,1.5
		c0.1,0.5-0.1,1-0.6,1.4c-0.4,0.4-1,0.6-1.7,0.8l-22.1,5.6l-7.9,21.4c-0.2,0.7-0.6,1.2-1,1.6c-0.5,0.4-1,0.6-1.5,0.5
		c-0.5-0.1-1-0.4-1.4-0.9c-0.1-0.1-0.3-0.4-0.5-0.7l-12.2-19.3l-22.8-0.9c-1.1-0.1-1.9-0.4-2.3-0.9c-0.7-0.8-0.6-1.9,0.5-3.2
		l14.6-17.5l-6.2-22c-0.4-1.3-0.3-2.2,0.4-2.8c0.7-0.6,1.6-0.6,2.9-0.1l21.2,8.4l19-12.7C363.4,576,364.4,576,365.2,576.8z"/>
</g>
<g class="st8">
	<path class="st7" d="M130.3,38.2c0.3,0.3,0.4,0.7,0.3,1.4l-0.8,13l10.2,8c0.1,0.1,0.2,0.2,0.4,0.4c0.2,0.3,0.4,0.6,0.4,0.9
		c0,0.3-0.1,0.6-0.3,0.8c-0.2,0.2-0.6,0.4-1,0.5l-12.6,3.2l-4.5,12.2c-0.1,0.4-0.3,0.7-0.6,0.9c-0.3,0.2-0.5,0.3-0.8,0.3
		c-0.3-0.1-0.6-0.2-0.8-0.5c-0.1-0.1-0.2-0.2-0.3-0.4l-6.9-11l-13-0.5c-0.6-0.1-1.1-0.2-1.3-0.5c-0.4-0.5-0.3-1.1,0.3-1.8l8.3-10
		l-3.5-12.5c-0.2-0.7-0.2-1.3,0.2-1.6c0.4-0.3,0.9-0.4,1.6-0.1l12.1,4.8l10.8-7.2C129.2,37.7,129.8,37.7,130.3,38.2z"/>
</g>
<g>
	<path class="st7" d="M363.1,408.6c0.4,0.5,0.6,1.3,0.6,2.4l-1.5,22.7l17.9,14.1c0.2,0.1,0.4,0.3,0.6,0.6c0.4,0.5,0.7,1,0.7,1.5
		c0.1,0.5-0.1,1-0.6,1.4c-0.4,0.4-1,0.6-1.7,0.8l-22.1,5.6l-7.9,21.4c-0.2,0.7-0.6,1.2-1,1.6c-0.5,0.4-1,0.6-1.5,0.5
		c-0.5-0.1-1-0.4-1.4-0.9c-0.1-0.1-0.3-0.4-0.5-0.7l-12.2-19.3l-22.8-0.9c-1.1-0.1-1.9-0.4-2.3-0.9c-0.7-0.8-0.6-1.9,0.5-3.2
		l14.6-17.5l-6.2-22c-0.4-1.3-0.3-2.2,0.4-2.8c0.7-0.6,1.6-0.6,2.9-0.1l21.2,8.4l19-12.7C361.2,407.8,362.3,407.7,363.1,408.6z"/>
</g>
<g class="st8">
	<path class="st10" d="M446.6,12.7c0.4,0.4,0.5,1.1,0.5,2l-1.2,18.7L460.6,45c0.1,0.1,0.3,0.3,0.5,0.5c0.3,0.4,0.5,0.8,0.6,1.2
		c0,0.4-0.1,0.8-0.5,1.2c-0.3,0.3-0.8,0.5-1.4,0.7l-18.2,4.6l-6.5,17.6c-0.2,0.6-0.5,1-0.8,1.3c-0.4,0.3-0.8,0.5-1.2,0.4
		c-0.4-0.1-0.8-0.3-1.2-0.7c-0.1-0.1-0.2-0.3-0.4-0.6l-10-15.9l-18.8-0.7c-0.9-0.1-1.5-0.3-1.9-0.7c-0.6-0.7-0.5-1.6,0.4-2.7
		l12-14.4l-5.1-18.1c-0.3-1.1-0.2-1.8,0.3-2.3s1.3-0.5,2.4-0.1l17.4,6.9L444,12.8C445.1,12.1,446,12,446.6,12.7z"/>
</g>
<g class="st8">
	<path class="st9" d="M273.7,90.9c0.3,0.3,0.4,0.7,0.3,1.4l-0.8,13l10.2,8c0.1,0.1,0.2,0.2,0.4,0.4c0.2,0.3,0.4,0.6,0.4,0.9
		c0,0.3-0.1,0.6-0.3,0.8c-0.2,0.2-0.6,0.4-1,0.5l-12.6,3.2l-4.5,12.2c-0.1,0.4-0.3,0.7-0.6,0.9c-0.3,0.2-0.5,0.3-0.8,0.3
		c-0.3-0.1-0.6-0.2-0.8-0.5c-0.1-0.1-0.2-0.2-0.3-0.4l-6.9-11l-13-0.5c-0.6-0.1-1.1-0.2-1.3-0.5c-0.4-0.5-0.3-1.1,0.3-1.8l8.3-10
		l-3.5-12.5c-0.2-0.7-0.2-1.3,0.2-1.6c0.4-0.3,0.9-0.4,1.6-0.1l12.1,4.8l10.8-7.2C272.7,90.5,273.3,90.4,273.7,90.9z"/>
</g>
<g>
</g>
<g>
</g>
<g>
</g>
<g>
</g>
<g>
</g>
<g>
</g>
</svg>
