<?xml version="1.0" encoding="utf-8"?>
<!-- Generator: Adobe Illustrator 21.1.0, SVG Export Plug-In . SVG Version: 6.00 Build 0)  -->
<svg version="1.0" id="Layer_1" xmlns="http://www.w3.org/2000/svg" xmlns:xlink="http://www.w3.org/1999/xlink" x="0px" y="0px"
	 viewBox="0 0 536 661.7" style="enable-background:new 0 0 536 661.7;" xml:space="preserve">
<style type="text/css">
	.st0{fill:#284466;}
	.st1{opacity:0.8;fill:#FCCE95;}
	.st2{opacity:0.2;fill:#FFFFFF;}
	.st3{opacity:0.8;fill:#6DA0BF;}
	.st4{opacity:0.8;fill:#D19595;}
	.st5{fill:#FFFFFF;}
	.st6{fill:#CCCCCC;}
	.st7{fill:#6DA0BF;}
	.st8{opacity:0.8;}
	.st9{fill:#D19595;}
	.st10{fill:#FCCE95;}
</style>
<path class="st0" d="M13.3,269.3"/>
<path class="st1" d="M509.3,203.1c0-63.2-43.4-114.4-96.9-114.4c-53.5,0-96.9,51.2-96.9,114.4c0,63.2,43.4,114.4,96.9,114.4
	c0.3,0,0.7,0,1,0l-8.1,14.4h40.2l-11.7-17.2C477.1,303.1,509.3,257.6,509.3,203.1z"/>
<circle class="st2" cx="443.3" cy="136.4" r="17.8"/>
<path class="st3" d="M226.3,208.8c0-60.4-49-109.4-109.4-109.4c-60.4,0-109.4,49-109.4,109.4c0,57.5,44.3,104.5,100.6,109
	l-14.4,25.8h40.2l-17.2-25.4c0.1,0,0.2,0,0.3,0C177.3,318.2,226.3,269.2,226.3,208.8z"/>
<circle class="st2" cx="164.8" cy="164" r="17.8"/>
<path class="st4" d="M367,256.2c0-55.6-45.1-100.7-100.7-100.7c-55.6,0-100.7,45.1-100.7,100.7c0,52.6,40.4,95.8,91.8,100.3
	l-16.6,23.8h41l-15.8-23.4c0.1,0,0.2,0,0.3,0C322,356.9,367,311.8,367,256.2z"/>
<circle class="st2" cx="306.4" cy="215" r="16.4"/>
<g>
	<path class="st5" d="M111.8,258.5c0-1.6,0.5-3,1.5-4.1c1-1.1,2.4-1.7,4.2-1.7c1.8,0,3.2,0.6,4.2,1.7c1.1,1.1,1.6,2.5,1.6,4.1
		c0,1.6-0.5,2.9-1.6,3.9c-1.1,1.1-2.5,1.6-4.2,1.6c-1.8,0-3.2-0.5-4.2-1.6C112.3,261.4,111.8,260.1,111.8,258.5z M120.9,235h-7.8
		l-0.4-73.6h8.7L120.9,235z"/>
</g>
<g>
	<path class="st5" d="M407.3,247.3c0-1.6,0.5-3,1.5-4.1s2.4-1.7,4.2-1.7c1.8,0,3.2,0.6,4.2,1.7s1.6,2.5,1.6,4.1
		c0,1.6-0.5,2.9-1.6,3.9s-2.5,1.6-4.2,1.6c-1.8,0-3.2-0.5-4.2-1.6S407.3,248.9,407.3,247.3z M416.5,223.8h-7.8l-0.4-73.6h8.7
		L416.5,223.8z"/>
</g>
<g>
	<path class="st5" d="M261.8,301c0-1.4,0.5-2.6,1.4-3.6c0.9-1,2.2-1.5,3.8-1.5c1.6,0,2.8,0.5,3.8,1.5c0.9,1,1.4,2.2,1.4,3.6
		c0,1.4-0.5,2.6-1.4,3.5c-0.9,0.9-2.2,1.4-3.8,1.4c-1.6,0-2.8-0.5-3.8-1.4C262.3,303.5,261.8,302.3,261.8,301z M270,280h-6.9
		l-0.4-65.7h7.8L270,280z"/>
</g>
<rect x="110.2" y="558.1" class="st6" width="4.9" height="58.2"/>
<rect x="259.7" y="558.1" class="st6" width="4.9" height="58.2"/>
<rect x="423.2" y="558.1" class="st6" width="4.9" height="58.2"/>
<g>
	<path class="st7" d="M31,530.9h-3.2v-21.4H16v21.4h-3.2v-24H31V530.9z"/>
	<path class="st7" d="M39.9,521.5v9.4h-3.2v-24h8.8c2.6,0,4.7,0.7,6.2,2s2.2,3.1,2.2,5.3c0,2.3-0.7,4.1-2.2,5.4
		c-1.5,1.3-3.5,1.9-6.3,1.9H39.9z M39.9,518.9h5.7c1.7,0,3-0.4,3.9-1.2c0.9-0.8,1.4-2,1.4-3.5c0-1.4-0.5-2.6-1.4-3.4
		c-0.9-0.9-2.1-1.3-3.7-1.3h-5.9V518.9z"/>
	<path class="st7" d="M76.5,519.7c0,2.4-0.4,4.4-1.2,6.2c-0.8,1.8-1.9,3.1-3.4,4c-1.4,0.9-3.1,1.4-5.1,1.4c-1.9,0-3.6-0.5-5-1.4
		c-1.5-0.9-2.6-2.3-3.4-4c-0.8-1.7-1.2-3.7-1.2-6v-1.7c0-2.3,0.4-4.3,1.2-6.1c0.8-1.8,1.9-3.1,3.4-4.1s3.1-1.4,5-1.4
		c1.9,0,3.6,0.5,5.1,1.4c1.5,0.9,2.6,2.3,3.4,4c0.8,1.8,1.2,3.8,1.2,6.2V519.7z M73.3,518.2c0-2.8-0.6-5-1.7-6.5s-2.7-2.3-4.8-2.3
		c-2,0-3.6,0.8-4.7,2.3s-1.7,3.6-1.8,6.3v1.8c0,2.8,0.6,4.9,1.7,6.5c1.2,1.6,2.8,2.4,4.8,2.4c2,0,3.6-0.7,4.7-2.2
		c1.1-1.5,1.7-3.6,1.7-6.4V518.2z"/>
	<path class="st7" d="M93.1,509.3h0.5c1.8,0,3.5,0.4,5,1.3c1.5,0.8,2.7,2,3.5,3.5c0.8,1.5,1.2,3.1,1.2,4.9c0,1.8-0.4,3.5-1.3,5
		s-2,2.6-3.5,3.5s-3.1,1.3-4.9,1.3h-0.6v3.2H90v-3.2h-0.5c-1.8,0-3.5-0.4-5-1.3c-1.5-0.8-2.7-2-3.5-3.5c-0.8-1.5-1.2-3.1-1.2-5
		s0.4-3.5,1.2-5c0.8-1.5,2-2.6,3.5-3.5c1.5-0.8,3.2-1.3,5-1.3H90v-3.4h3.1V509.3z M89.5,511.8c-2.1,0-3.7,0.6-4.9,1.9
		c-1.2,1.3-1.8,3-1.8,5.3c0,2.3,0.6,4,1.8,5.3c1.2,1.3,2.8,1.9,4.9,1.9H90v-14.3H89.5z M93.1,511.8v14.3h0.5c2.1,0,3.7-0.6,4.9-1.9
		c1.2-1.3,1.8-3,1.8-5.3c0-2.2-0.6-3.9-1.8-5.2c-1.2-1.3-2.8-1.9-5-1.9H93.1z"/>
	<path class="st7" d="M122.4,506.9h3.2v24h-3.2v-18.5l-11.8,18.5h-3.2v-24h3.2v18.5L122.4,506.9z"/>
	<path class="st7" d="M149.7,506.9v24h-3.2v-21.4h-8.6l-0.4,9.5c-0.2,3.2-0.5,5.6-1,7.2c-0.5,1.6-1.2,2.8-2.1,3.5
		c-0.9,0.8-2.2,1.1-3.8,1.2h-1v-2.6l0.7,0c1-0.1,1.8-0.4,2.4-1c0.5-0.6,1-1.5,1.3-2.8c0.3-1.3,0.5-3.3,0.6-5.9l0.5-11.6H149.7z"/>
	<path class="st7" d="M169,524.6h-10l-2.3,6.3h-3.3l9.2-24h2.8l9.2,24h-3.2L169,524.6z M159.9,522.1h8.2l-4.1-11.2L159.9,522.1z"/>
	<path class="st7" d="M184,520.1H181v10.8h-3.2v-24h3.2v10.6h2.5l8.4-10.6h3.9l-9.2,11.6l9.8,12.4h-3.9L184,520.1z"/>
	<path class="st7" d="M216,509.5h-7.7v21.4h-3.1v-21.4h-7.7v-2.6H216V509.5z"/>
	<path class="st7" d="M234.6,506.9h3.2v24h-3.2v-18.5l-11.8,18.5h-3.2v-24h3.2v18.5L234.6,506.9z"/>
	<path class="st7" d="M260.5,506.9v24h-3.2V521c-1.2,0.3-2.2,0.6-3.1,0.7s-2,0.2-3.2,0.2c-2.7,0-4.8-0.6-6.1-1.8c-1.3-1.2-2-3-2-5.4
		v-7.7h3.2v7.6c0,1.7,0.4,2.9,1.1,3.6s2,1.1,3.8,1.1c2.1,0,4.2-0.3,6.4-0.9v-11.4H260.5z"/>
	<path class="st7" d="M279.8,519.8h-10.4v8.5h12.1v2.6h-15.2v-24h15.1v2.6h-11.9v7.7h10.4V519.8z"/>
	<path class="st7" d="M303,523.3c-0.3,2.5-1.2,4.5-2.8,5.9c-1.6,1.4-3.7,2.1-6.3,2.1c-2.8,0-5.1-1-6.8-3c-1.7-2-2.6-4.7-2.6-8.2
		v-2.3c0-2.2,0.4-4.2,1.2-5.9c0.8-1.7,1.9-3,3.4-3.9c1.5-0.9,3.2-1.4,5.1-1.4c2.5,0,4.6,0.7,6.1,2.1c1.5,1.4,2.4,3.4,2.7,5.9h-3.2
		c-0.3-1.9-0.9-3.3-1.8-4.2c-0.9-0.9-2.2-1.3-3.8-1.3c-2,0-3.6,0.7-4.8,2.2c-1.1,1.5-1.7,3.6-1.7,6.4v2.3c0,2.6,0.5,4.7,1.6,6.2
		c1.1,1.5,2.6,2.3,4.6,2.3c1.8,0,3.1-0.4,4-1.2c0.9-0.8,1.6-2.2,1.9-4.2H303z"/>
	<path class="st7" d="M313.6,520.1h-2.9v10.8h-3.2v-24h3.2v10.6h2.5l8.4-10.6h3.9l-9.2,11.6l9.8,12.4h-3.9L313.6,520.1z"/>
	<path class="st7" d="M344.1,506.9h3.2v24h-3.2v-18.5l-11.8,18.5h-3.2v-24h3.2v18.5L344.1,506.9z"/>
	<path class="st7" d="M366.6,519.8h-10.4v8.5h12.1v2.6h-15.2v-24h15.1v2.6h-11.9v7.7h10.4V519.8z"/>
	<path class="st7" d="M383.7,521.5v9.4h-3.2v-24h8.8c2.6,0,4.7,0.7,6.2,2c1.5,1.3,2.2,3.1,2.2,5.3c0,2.3-0.7,4.1-2.2,5.4
		c-1.5,1.3-3.5,1.9-6.2,1.9H383.7z M383.7,518.9h5.7c1.7,0,3-0.4,3.9-1.2c0.9-0.8,1.4-2,1.4-3.5c0-1.4-0.5-2.6-1.4-3.4
		c-0.9-0.9-2.1-1.3-3.7-1.3h-5.9V518.9z"/>
	<path class="st7" d="M412.8,524.6h-10l-2.3,6.3h-3.3l9.2-24h2.8l9.2,24h-3.2L412.8,524.6z M403.7,522.1h8.2l-4.1-11.2L403.7,522.1z
		"/>
	<path class="st7" d="M436.2,509.5h-11.6v7.2h6c2.5,0,4.5,0.7,5.9,1.9s2.1,3,2.1,5.1c0,2.2-0.7,3.9-2.1,5.2c-1.4,1.3-3.3,1.9-5.8,2
		h-9.2v-24h14.7V509.5z M424.7,519.3v9h5.8c1.6,0,2.8-0.4,3.7-1.3s1.3-2,1.3-3.4c0-1.4-0.4-2.4-1.3-3.2c-0.8-0.8-2-1.2-3.6-1.2
		H424.7z"/>
	<path class="st7" d="M461.3,519.7c0,2.4-0.4,4.4-1.2,6.2c-0.8,1.8-1.9,3.1-3.4,4c-1.4,0.9-3.1,1.4-5.1,1.4c-1.9,0-3.6-0.5-5-1.4
		c-1.5-0.9-2.6-2.3-3.4-4c-0.8-1.7-1.2-3.7-1.2-6v-1.7c0-2.3,0.4-4.3,1.2-6.1c0.8-1.8,1.9-3.1,3.4-4.1s3.1-1.4,5-1.4
		c1.9,0,3.6,0.5,5.1,1.4c1.5,0.9,2.6,2.3,3.4,4c0.8,1.8,1.2,3.8,1.2,6.2V519.7z M458.2,518.2c0-2.8-0.6-5-1.7-6.5
		c-1.1-1.5-2.7-2.3-4.8-2.3c-2,0-3.6,0.8-4.7,2.3c-1.1,1.5-1.7,3.6-1.8,6.3v1.8c0,2.8,0.6,4.9,1.7,6.5c1.2,1.6,2.8,2.4,4.8,2.4
		c2,0,3.6-0.7,4.7-2.2s1.7-3.6,1.7-6.4V518.2z"/>
	<path class="st7" d="M482.2,509.5h-7.7v21.4h-3.1v-21.4h-7.7v-2.6h18.5V509.5z"/>
	<path class="st7" d="M489,516.7h6c2.5,0,4.5,0.7,5.9,1.9s2.1,3,2.1,5.1c0,2.2-0.7,3.9-2.1,5.2c-1.4,1.3-3.3,1.9-5.8,2h-9.2v-24h3.2
		V516.7z M489,519.3v9h5.8c1.6,0,2.8-0.4,3.7-1.3s1.3-2,1.3-3.4c0-1.4-0.4-2.4-1.3-3.2c-0.8-0.8-2-1.2-3.6-1.2H489z M509,530.9h-3.2
		v-24h3.2V530.9z"/>
</g>
<polygon class="st6" points="423.2,331.9 423.2,334.2 423.2,335.1 423.2,482.2 428.1,482.2 428.1,335.1 428.1,334.2 428.1,331.9 "/>
<polygon class="st6" points="259.7,380.3 259.7,382.6 259.7,383.8 259.7,482.2 264.6,482.2 264.6,383.8 264.6,382.6 264.6,380.3 "/>
<polygon class="st6" points="110.2,343.6 110.2,346.5 110.2,348.5 110.2,482.2 115.1,482.2 115.1,348.5 115.1,346.5 115.1,343.6 "/>
<g class="st8">
	<path class="st9" d="M507.7,328.7c0.3,0.3,0.4,0.7,0.3,1.4l-0.8,13l10.2,8c0.1,0.1,0.2,0.2,0.4,0.4c0.2,0.3,0.4,0.6,0.4,0.9
		c0,0.3-0.1,0.6-0.3,0.8c-0.2,0.2-0.6,0.4-1,0.5l-12.6,3.2l-4.5,12.2c-0.1,0.4-0.3,0.7-0.6,0.9c-0.3,0.2-0.5,0.3-0.8,0.3
		c-0.3-0.1-0.6-0.2-0.8-0.5c-0.1-0.1-0.2-0.2-0.3-0.4l-6.9-11l-13-0.5c-0.6-0.1-1.1-0.2-1.3-0.5c-0.4-0.5-0.3-1.1,0.3-1.8l8.3-10
		l-3.5-12.5c-0.2-0.7-0.2-1.3,0.2-1.6c0.4-0.3,0.9-0.4,1.6-0.1l12.1,4.8l10.8-7.2C506.7,328.3,507.3,328.2,507.7,328.7z"/>
</g>
<g class="st8">
	<path class="st9" d="M187.4,633.3c-0.4,0-0.8-0.2-1.1-0.5l-16-15.4c-0.2-0.1-0.4-0.4-0.7-0.7c-0.3-0.3-0.8-0.9-1.4-1.7
		c-0.6-0.8-1.2-1.6-1.7-2.5c-0.5-0.9-1-1.9-1.4-3.1c-0.4-1.2-0.6-2.4-0.6-3.5c0-3.8,1.1-6.7,3.3-8.8c2.2-2.1,5.2-3.2,9-3.2
		c1.1,0,2.1,0.2,3.2,0.6c1.1,0.4,2.1,0.9,3.1,1.5c0.9,0.6,1.8,1.2,2.4,1.8c0.7,0.5,1.3,1.1,1.9,1.7c0.6-0.6,1.3-1.2,1.9-1.7
		c0.7-0.5,1.5-1.1,2.4-1.8s2-1.1,3.1-1.5c1.1-0.4,2.2-0.6,3.2-0.6c3.8,0,6.8,1.1,9,3.2c2.2,2.1,3.3,5.1,3.3,8.8
		c0,3.8-2,7.6-5.9,11.5l-15.9,15.4C188.2,633.1,187.8,633.3,187.4,633.3z"/>
</g>
<g class="st8">
	<path class="st9" d="M488.9,490.4c-0.4,0-0.8-0.2-1.1-0.5l-16-15.4c-0.2-0.1-0.4-0.4-0.7-0.7c-0.3-0.3-0.8-0.9-1.4-1.7
		s-1.2-1.6-1.7-2.5c-0.5-0.9-1-1.9-1.4-3.1c-0.4-1.2-0.6-2.4-0.6-3.5c0-3.8,1.1-6.7,3.3-8.8c2.2-2.1,5.2-3.2,9-3.2
		c1.1,0,2.1,0.2,3.2,0.6c1.1,0.4,2.1,0.9,3.1,1.5c0.9,0.6,1.8,1.2,2.4,1.8c0.7,0.5,1.3,1.1,1.9,1.7c0.6-0.6,1.3-1.2,1.9-1.7
		c0.7-0.5,1.5-1.1,2.4-1.8c0.9-0.6,2-1.1,3.1-1.5c1.1-0.4,2.2-0.6,3.2-0.6c3.8,0,6.8,1.1,9,3.2c2.2,2.1,3.3,5.1,3.3,8.8
		c0,3.8-2,7.6-5.9,11.5L490,490C489.7,490.3,489.3,490.4,488.9,490.4z"/>
</g>
<g class="st8">
	<path class="st9" d="M184.6,431.9c-0.6,0-1-0.2-1.4-0.6l-20.4-19.5c-0.2-0.2-0.5-0.5-0.9-0.8c-0.4-0.4-1-1.1-1.8-2.1
		c-0.8-1-1.6-2.1-2.2-3.2c-0.7-1.1-1.2-2.4-1.8-3.9c-0.5-1.5-0.8-3-0.8-4.5c0-4.7,1.4-8.5,4.2-11.1c2.8-2.7,6.6-4,11.5-4
		c1.4,0,2.7,0.2,4.1,0.7c1.4,0.5,2.7,1.1,3.9,1.9c1.2,0.8,2.3,1.5,3.1,2.2c0.9,0.7,1.7,1.4,2.5,2.2c0.8-0.8,1.6-1.5,2.5-2.2
		c0.9-0.7,1.9-1.4,3.1-2.2c1.2-0.8,2.5-1.4,3.9-1.9c1.4-0.5,2.8-0.7,4.1-0.7c4.9,0,8.7,1.3,11.5,4c2.8,2.7,4.2,6.4,4.2,11.1
		c0,4.8-2.5,9.6-7.5,14.6l-20.4,19.4C185.7,431.7,185.2,431.9,184.6,431.9z"/>
</g>
<g class="st8">
	<path class="st10" d="M371.1,385.8c-0.3,0-0.6-0.1-0.8-0.3l-11.1-10.7c-0.1-0.1-0.3-0.2-0.5-0.5c-0.2-0.2-0.5-0.6-1-1.2
		s-0.9-1.1-1.2-1.7c-0.4-0.6-0.7-1.3-0.9-2.1c-0.3-0.8-0.4-1.7-0.4-2.4c0-2.6,0.8-4.6,2.3-6.1c1.5-1.5,3.6-2.2,6.2-2.2
		c0.7,0,1.5,0.1,2.2,0.4c0.8,0.3,1.5,0.6,2.1,1s1.2,0.8,1.7,1.2c0.5,0.4,0.9,0.8,1.3,1.2c0.4-0.4,0.9-0.8,1.3-1.2
		c0.5-0.4,1-0.8,1.7-1.2s1.4-0.8,2.1-1c0.8-0.3,1.5-0.4,2.2-0.4c2.6,0,4.7,0.7,6.2,2.2c1.5,1.5,2.3,3.5,2.3,6.1c0,2.6-1.4,5.3-4.1,8
		l-11.1,10.6C371.7,385.7,371.4,385.8,371.1,385.8z"/>
</g>
<g class="st8">
	<path class="st10" d="M39.7,319.1c0.3,0.3,0.4,0.7,0.3,1.4l-0.8,13l10.2,8c0.1,0.1,0.2,0.2,0.4,0.4c0.2,0.3,0.4,0.6,0.4,0.9
		c0,0.3-0.1,0.6-0.3,0.8c-0.2,0.2-0.6,0.4-1,0.5l-12.6,3.2l-4.5,12.2c-0.1,0.4-0.3,0.7-0.6,0.9c-0.3,0.2-0.5,0.3-0.8,0.3
		c-0.3-0.1-0.6-0.2-0.8-0.5c-0.1-0.1-0.2-0.2-0.3-0.4l-6.9-11l-13-0.5c-0.6-0.1-1.1-0.2-1.3-0.5c-0.4-0.5-0.3-1.1,0.3-1.8l8.3-10
		l-3.5-12.5c-0.2-0.7-0.2-1.3,0.2-1.6c0.4-0.3,0.9-0.4,1.6-0.1l12.1,4.8l10.8-7.2C38.6,318.6,39.2,318.6,39.7,319.1z"/>
</g>
<g>
	<path class="st7" d="M52.6,465.9c-0.6,0-1-0.2-1.4-0.6l-20.4-19.5c-0.2-0.2-0.5-0.5-0.9-0.8c-0.4-0.4-1-1.1-1.8-2.1
		c-0.8-1-1.6-2.1-2.2-3.2c-0.7-1.1-1.2-2.4-1.8-3.9c-0.5-1.5-0.8-3-0.8-4.5c0-4.7,1.4-8.5,4.2-11.1c2.8-2.7,6.6-4,11.5-4
		c1.4,0,2.7,0.2,4.1,0.7c1.4,0.5,2.7,1.1,3.9,1.9c1.2,0.8,2.3,1.5,3.1,2.2c0.9,0.7,1.7,1.4,2.5,2.2c0.8-0.8,1.6-1.5,2.5-2.2
		c0.9-0.7,1.9-1.4,3.1-2.2c1.2-0.8,2.5-1.4,3.9-1.9c1.4-0.5,2.8-0.7,4.1-0.7c4.9,0,8.7,1.3,11.5,4c2.8,2.7,4.2,6.4,4.2,11.1
		c0,4.8-2.5,9.6-7.5,14.6L54,465.3C53.7,465.7,53.2,465.9,52.6,465.9z"/>
</g>
<g class="st8">
	<path class="st10" d="M362.7,577.6c0.4,0.5,0.6,1.3,0.6,2.4l-1.5,22.7l17.9,14.1c0.2,0.1,0.4,0.3,0.6,0.6c0.4,0.5,0.7,1,0.7,1.5
		c0.1,0.5-0.1,1-0.6,1.4c-0.4,0.4-1,0.6-1.7,0.8l-22.1,5.6l-7.9,21.4c-0.2,0.7-0.6,1.2-1,1.6c-0.5,0.4-1,0.6-1.5,0.5
		c-0.5-0.1-1-0.4-1.4-0.9c-0.1-0.1-0.3-0.4-0.5-0.7l-12.2-19.3l-22.8-0.9c-1.1-0.1-1.9-0.4-2.3-0.9c-0.7-0.8-0.6-1.9,0.5-3.2
		l14.6-17.5l-6.2-22c-0.4-1.3-0.3-2.2,0.4-2.8c0.7-0.6,1.6-0.6,2.9-0.1l21.2,8.4l19-12.7C360.9,576.8,362,576.7,362.7,577.6z"/>
</g>
<g class="st8">
	<path class="st7" d="M127.8,35.9c0.3,0.3,0.4,0.7,0.3,1.4l-0.8,13l10.2,8c0.1,0.1,0.2,0.2,0.4,0.4c0.2,0.3,0.4,0.6,0.4,0.9
		c0,0.3-0.1,0.6-0.3,0.8c-0.2,0.2-0.6,0.4-1,0.5L124.4,64l-4.5,12.2c-0.1,0.4-0.3,0.7-0.6,0.9c-0.3,0.2-0.5,0.3-0.8,0.3
		c-0.3-0.1-0.6-0.2-0.8-0.5c-0.1-0.1-0.2-0.2-0.3-0.4l-6.9-11l-13-0.5c-0.6-0.1-1.1-0.2-1.3-0.5c-0.4-0.5-0.3-1.1,0.3-1.8l8.3-10
		l-3.5-12.5c-0.2-0.7-0.2-1.3,0.2-1.6c0.4-0.3,0.9-0.4,1.6-0.1l12.1,4.8l10.8-7.2C126.8,35.5,127.4,35.5,127.8,35.9z"/>
</g>
<g>
	<path class="st7" d="M360.6,406.3c0.4,0.5,0.6,1.3,0.6,2.4l-1.5,22.7l17.9,14.1c0.2,0.1,0.4,0.3,0.6,0.6c0.4,0.5,0.7,1,0.7,1.5
		c0.1,0.5-0.1,1-0.6,1.4c-0.4,0.4-1,0.6-1.7,0.8l-22.1,5.6l-7.9,21.4c-0.2,0.7-0.6,1.2-1,1.6c-0.5,0.4-1,0.6-1.5,0.5
		c-0.5-0.1-1-0.4-1.4-0.9c-0.1-0.1-0.3-0.4-0.5-0.7l-12.2-19.3l-22.8-0.9c-1.1-0.1-1.9-0.4-2.3-0.9c-0.7-0.8-0.6-1.9,0.5-3.2
		l14.6-17.5l-6.2-22c-0.4-1.3-0.3-2.2,0.4-2.8c0.7-0.6,1.6-0.6,2.9-0.1l21.2,8.4l19-12.7C358.8,405.6,359.8,405.5,360.6,406.3z"/>
</g>
<g class="st8">
	<path class="st10" d="M444.2,10.5c0.4,0.4,0.5,1.1,0.5,2l-1.2,18.7l14.7,11.6c0.1,0.1,0.3,0.3,0.5,0.5c0.3,0.4,0.5,0.8,0.6,1.2
		c0,0.4-0.1,0.8-0.5,1.2c-0.3,0.3-0.8,0.5-1.4,0.7L439.2,51l-6.5,17.6c-0.2,0.6-0.5,1-0.8,1.3c-0.4,0.3-0.8,0.5-1.2,0.4
		c-0.4-0.1-0.8-0.3-1.2-0.7c-0.1-0.1-0.2-0.3-0.4-0.6l-10-15.9l-18.8-0.7c-0.9-0.1-1.5-0.3-1.9-0.7c-0.6-0.7-0.5-1.6,0.4-2.7
		l12-14.4l-5.1-18.1c-0.3-1.1-0.2-1.8,0.3-2.3s1.3-0.5,2.4-0.1l17.4,6.9l15.6-10.4C442.7,9.8,443.5,9.8,444.2,10.5z"/>
</g>
<g class="st8">
	<path class="st9" d="M271.2,88.7c0.3,0.3,0.4,0.7,0.3,1.4l-0.8,13l10.2,8c0.1,0.1,0.2,0.2,0.4,0.4c0.2,0.3,0.4,0.6,0.4,0.9
		c0,0.3-0.1,0.6-0.3,0.8c-0.2,0.2-0.6,0.4-1,0.5l-12.6,3.2l-4.5,12.2c-0.1,0.4-0.3,0.7-0.6,0.9c-0.3,0.2-0.5,0.3-0.8,0.3
		c-0.3-0.1-0.6-0.2-0.8-0.5c-0.1-0.1-0.2-0.2-0.3-0.4l-6.9-11l-13-0.5c-0.6-0.1-1.1-0.2-1.3-0.5c-0.4-0.5-0.3-1.1,0.3-1.8l8.3-10
		l-3.5-12.5c-0.2-0.7-0.2-1.3,0.2-1.6c0.4-0.3,0.9-0.4,1.6-0.1l12.1,4.8l10.8-7.2C270.2,88.2,270.8,88.2,271.2,88.7z"/>
</g>
</svg>
