<?xml version="1.0" encoding="utf-8"?>
<!-- Generator: Adobe Illustrator 21.1.0, SVG Export Plug-In . SVG Version: 6.00 Build 0)  -->
<svg version="1.1" id="Layer_1" xmlns="http://www.w3.org/2000/svg" xmlns:xlink="http://www.w3.org/1999/xlink" x="0px" y="0px"
	 viewBox="0 0 288.7 116.8" style="enable-background:new 0 0 288.7 116.8;" xml:space="preserve">
<style type="text/css">
	.st0{fill:#174D73;}
</style>
<g>
	<path class="st0" d="M196.8,97.6c-2.6,0.1-5.7,0-9-1.5c-0.7-0.3-1.3-0.7-1.9-1c-3.9-2.5-11.3-9.2-22.5-20.2l-0.2-0.2
		c-2.6-2.5-10-10-22.2-22.4c22.3-20,35.9-32.8,41.3-34.6c1.9-0.7,5.6-1.2,10.3-1.4c7.2,0.3,8.6,2.9,9.7,4.5c0.9,1.5,1.4,4.6,1.5,11
		l0,0v0.1v0.4v50c0,4.9-0.3,8.5-0.8,10.6c-0.2,0.8-0.4,1.4-0.7,1.8c-0.9,1.3-2.5,2.4-4.8,3C197.3,97.6,196.9,97.6,196.8,97.6
		 M220,101.7l11-0.1c12,0,21.7-1.6,29-4.9c7.5-3.4,14.6-10.5,14.8-23.7c0.1-6.7-2.6-13.1-7.9-17.1c-3.5-2.7-8.2-4.7-13.4-5.8l0,0
		c-0.2,0-7.9-2.1-21.1-1.8h-10.9V19.4c0-1.8,0.8-2.7,2.4-2.7h20.4c7.8,0,11.8-0.7,15.3,2.2c2,1.7,2.3,2.6,3.1,5.1
		c0.3,1.7,0.4,2.9,0.5,6.4h6V16.5v-4h-113v3c8.7-0.3,10.5,1.8,9.9,3.9c-0.4,1.6-4.9,6.5-16.3,17c-7.4,6.8-13.2,13.7-17.3,17V12.5
		H67.1v3.2c8.7-0.3,10.3,1.6,9.8,3.7c-0.4,1.6-4.7,6.5-16.2,17c-7.4,6.7-13.1,13.7-17.3,17V12.5H13.7v2.8v0.5
		c7-0.2,9.2,3.1,10.4,4.9c0.9,1.5,1.4,4.6,1.5,11l0,0v0.1v0.4v50c0,6.7-0.5,10.8-1.5,12.4c-0.9,1.4-2.2,3.2-4.8,3.9
		c-1.8,0.3-1.9,0.4-5.5,0.3v3h44.5v-3.1c-6.8-0.1-11.5-1.6-13.2-4.2c-0.9-1.3-1.5-4.1-1.7-8.3V60.5C58.5,75.2,72.7,89.1,85,101.7
		h62.3v-3c-6.8-0.1-11.5-1.7-13.2-4.2c-0.9-1.3-1.5-4.1-1.7-8.3V60.5c15.1,14.7,28.9,28.5,41.2,41.1L220,101.7L220,101.7z
		 M259.7,74.3c-0.1,10.8-3,16.6-8.9,19.5c-4.3,2.1-11.5,3.1-21.4,3.1h-5.3c-1.7-0.3-2.6-1-2.6-2.3V52h10.1c8.4,0,15.1,1.6,20,4.9
		C257,60.6,259.8,64.8,259.7,74.3 M107.8,97.6c-2.6,0.1-5.5,0-8.9-1.5c-0.6-0.3-1.2-0.7-1.9-1c-3.9-2.5-11.5-9.2-22.8-20.2L74,74.7
		c-2.6-2.5-9.8-10-22.1-22.4c22.3-20,36-32.8,41.3-34.6c2-0.7,5.4-1.2,10.1-1.4c7.3,0.3,8.7,2.9,9.8,4.5c1,1.5,1.5,4.6,1.5,11l0,0
		v0.1v0.4v50c0,6.7-0.5,10.8-1.5,12.4c-0.9,1.4-2.7,2.4-5.3,3.1l0,0C107.8,97.8,107.8,97.6,107.8,97.6z"/>
</g>
</svg>
