<?xml version="1.0" encoding="utf-8"?>
<!-- Generator: Adobe Illustrator 21.1.0, SVG Export Plug-In . SVG Version: 6.00 Build 0)  -->
<svg version="1.1" id="Layer_1" xmlns="http://www.w3.org/2000/svg" xmlns:xlink="http://www.w3.org/1999/xlink" x="0px" y="0px"
	 viewBox="0 0 100 100" style="enable-background:new 0 0 100 100;" xml:space="preserve">
<style type="text/css">
	.st0{fill:#21C4F9;}
</style>
<path class="st0" d="M69.8,62.9c0,0.2-0.1,0.4,0,0.5l0,0c0,0-0.1,0.1-0.1,0.1c-0.2,0.3-0.2,0.6-0.3,0.9l0,0l0,0
	c-0.1,0.2-0.1,0.5-0.2,0.7l0,0l0,0c0,0-0.1,0.1-0.1,0.1c0,0,0,0,0,0.1c-0.1,0.3-0.1,0.6-0.2,0.9c-0.1,0.3,0,0.6-0.2,0.8
	c0,0,0,0,0,0.1c-0.1,0.7-0.4,1.4-0.5,2.2c-0.2,1-0.6,1.9-0.9,2.9c-0.1,0.3-0.2,0.5-0.3,0.8c-0.1,0.2-0.1,0.4-0.1,0.6
	c-0.3,0.9-0.6,1.8-0.9,2.8c-0.2,0.8-0.4,1.6-0.7,2.4c0,0.2-0.1,0.2-0.3,0.2c-0.4-0.2-0.4-0.2-0.6,0.2l0,0c-0.3,0.6-0.5,1.3-0.5,2
	l0,0c0,0,0,0,0,0.1c-0.2,0.4-0.1,0.9-0.2,1.3l0,0c-0.1,0.1-0.1,0.3-0.1,0.5c0,0,0,0,0,0.1c0,0.1-0.1,0.2-0.1,0.3c0,0,0,0,0-0.1
	c0,0,0,0,0,0.1c-0.1,0.2-0.2,0.5-0.2,0.7l0,0l0,0l0,0l0,0l0,0c0,0,0,0-0.1,0l0,0c-0.1,0-0.3,0-0.4,0c-0.2,0-0.3,0.2-0.1,0.3
	C63,84.7,63,85,63,85.2l0,0l0,0l0,0c0,0.2-0.1,0.4-0.1,0.5c-0.2,0.6-0.5,1.1-0.6,1.7l0,0c-0.2,0.5-0.4,1-0.5,1.6l0,0
	c-0.1,0.3-0.2,0.6-0.2,1l0,0l0,0c0,0.1,0,0.2,0,0.3l0,0l0,0c-0.1,0.4-0.2,0.7-0.5,1c-0.3,0.2-0.6,0.5-0.3,1C61,92,61,92,61.1,92.3
	c0,0.2,0,0.4,0.2,0.5c0,0,0.1,0.1,0,0.2c0,0-0.1,0-0.2,0c0,0-0.1-0.1-0.1-0.1c0,0-0.1-0.1-0.2,0c0,0,0,0.1,0,0.2
	c0,0.3,0.2,0.4,0.5,0.3c0.5-0.1,0.6-0.1,0.8,0.5c0,0,0,0,0,0c0,0,0,0,0,0.1c0,0.1,0.1,0.2,0.2,0.1c0.2-0.1,0.2,0,0.2,0.2
	c0,0.1,0,0.1,0.1,0.2c0.3-0.1,0.5-0.1,0.8,0c0,0,0.1,0,0.1,0c0.1,0,0.1,0,0.1-0.1c0-0.1,0-0.1-0.1-0.2c-0.1-0.1-0.2,0-0.3-0.1
	c0.1-0.1,0.2-0.1,0.3-0.1c0.3,0,0.6,0,1,0.1c0.7,0.1,1.4,0.2,2.1,0.1c0.1,0,0.2,0,0.2,0c1,0.1,2,0.1,3.1,0.1
	c1.2-0.1,2.4-0.2,3.6-0.1l0,0l0,0c0.6,0.1,1.2,0.3,1.9,0.4c0,0.1,0,0.1-0.1,0.1c-0.1,0-0.2,0-0.2,0.1c0,0.1,0.1,0.1,0.2,0.1
	c0.2,0,0.3,0,0.5,0c0.4,0,0.7,0.1,1.1,0.1c0.4-0.1,0.5-0.1,0.4-0.5c0-0.2-0.2-0.3-0.4-0.4c-0.3-0.1-0.5-0.1-0.8-0.2
	c-0.1,0-0.2-0.1-0.1-0.2c0.2-0.1,0.3-0.4,0.4-0.6l0,0l0,0c0.2-0.3,0.6-0.5,0.6-0.8l0,0l0,0c0-0.2,0.2-0.4,0.4-0.5
	c0.3-0.3,0.6-0.6,0.8-1c0.1-0.2,0-0.4-0.1-0.6c-0.1-0.2-0.2-0.3-0.2-0.5c0-0.2,0-0.3-0.2-0.4c-0.2-0.1-0.4,0-0.5,0.2
	c-0.1,0.2-0.3,0.4-0.4,0.6c-0.1,0.1-0.3,0.1-0.4,0.1c-0.4,0-0.8,0.1-1.1,0.3c-0.4,0.2-0.8,0.4-1.2,0.6c-0.5,0.3-1,0.4-1.6,0.4
	c-0.1,0-0.2,0-0.3,0c-0.1,0-0.1,0-0.2,0l0,0c-0.8-0.1-1.6-0.1-2.4-0.1c0,0-0.1,0-0.1,0c-0.4,0-0.8,0-1.2,0l0,0l0,0
	c-0.1,0-0.1,0-0.2,0l0,0c-0.4,0-0.7,0-1.1,0c-0.1,0-0.1,0-0.2,0c-0.5,0-0.9,0-1.4,0l0,0l0,0c-0.1,0-0.2,0-0.3,0
	c-0.1-0.1-0.3-0.1-0.5-0.1l0,0l0,0c0,0,0,0,0,0c-0.2-0.1-0.4-0.1-0.5-0.1c-0.4,0-0.4-0.2-0.3-0.5c0-0.1,0.1-0.2,0.1-0.3
	c0.1-0.1,0.3-0.1,0.5-0.1c0.2,0,0.1,0.3,0.3,0.4c0,0,0.1,0,0.1-0.1c0.1-0.5,0.4-0.9,0.2-1.4c0,0,0-0.1,0-0.1
	c0.2-0.5,0.2-0.9,0.5-1.4c0.1-0.2,0.2-0.4,0.3-0.6l0,0c0.1-0.3,0.4-0.6,0.4-0.9c0.2-0.4,0.4-0.8,0.8-0.9c0.3-0.1,0.6-0.1,0.5-0.5
	c0,0,0,0,0,0c0.3-0.1,0.5-0.2,0.4-0.6c0-0.1,0.1-0.1,0.2-0.1c0.2-0.1,0.3-0.5,0.2-0.7c-0.2-0.3-0.1-0.5,0.1-0.7
	c-0.1-0.2-0.3-0.3-0.5-0.4c0,0-0.1-0.1-0.1-0.1l0,0l0,0c0,0,0,0,0,0c0-0.3,0-0.6-0.1-0.9c0-0.1,0-0.3,0.1-0.4
	c0.1-0.4,0.3-0.8,0.5-1.2c0.1-0.3,0.3-0.6,0.1-0.9c0.1-0.2,0.4-0.2,0.5-0.5c0-0.1,0.1-0.2,0.1-0.3c0.3-0.9,0.5-1.8,1-2.6
	c0.2-0.3,0.3-0.7,0.2-1.1l0,0l0,0c0-0.2,0.1-0.4,0.2-0.6l0,0l0,0c0.3,0,0.3-0.2,0.3-0.5c0-0.2-0.1-0.5,0.3-0.5
	c0.1,0,0.1-0.1,0.1-0.2c0-0.5,0.1-0.9,0.4-1.3l0,0l0,0c0.1-0.4,0.4-0.7,0.6-1l0,0l0,0c0,0,0,0,0,0c0.7-0.2,0.7-0.2,0.2-0.7
	c-0.2-0.3-0.3-0.5-0.3-0.9c0-0.3,0.1-0.7-0.1-1c-0.1-0.2-0.1-0.5,0.1-0.6c0.1-0.3,0.1-0.6,0.1-1l0,0l0,0c0.1-0.3,0.2-0.5,0.3-0.8
	l0,0l0,0c0.1-0.3,0.3-0.5,0.3-0.8l0,0l0,0l0,0c0.1-0.3,0.1-0.5,0.2-0.8c0.1-0.2,0.4-0.4,0.5-0.7l0,0l0,0c0,0,0,0,0-0.1l0,0
	c0,0,0,0,0.1,0c0,0,0-0.1,0.1-0.1c0-0.1,0-0.2,0-0.4l0,0l0,0c0-0.2,0.1-0.3,0.2-0.5c0.2-0.1,0.3-0.4,0.4-0.5
	c0.3-0.4,0.5-0.9,0.6-1.4l0,0c0.2-0.4,0.3-0.7,0.5-1.1c0.2-0.5,0.5-1,0.7-1.5c0.2-0.5,0.3-0.9,0.6-1.3c0,0,0-0.1,0-0.2l0,0
	c0-0.1,0.1-0.2,0.1-0.2c0.1-0.4,0.3-0.8,0.5-1.1c0.1-0.1,0.1-0.2,0-0.3c-0.1-0.1,0-0.2,0-0.3c0.3-0.4,0.4-0.9,0.6-1.3
	c0.1-0.1,0.1-0.3,0-0.4c0,0-0.1-0.1-0.1-0.1c-0.4-0.2-0.4-0.2-0.2-0.6c0,0,0-0.1,0-0.1c0.2-0.5,0.3-0.5,0.7-0.2
	c0.2-0.3,0.1-0.7,0.3-0.9c-0.2-0.4,0.1-0.6,0.2-0.8c0.1-0.3,0.2-0.5,0-0.8l0,0l0,0l0,0c0-0.2,0-0.3-0.2-0.4l0,0l0,0l0,0l0,0
	c-0.1-0.2-0.3-0.3-0.6-0.2l0,0c0,0-0.1,0-0.1,0c-0.1,0-0.1-0.1-0.2-0.2c-0.2-0.4-0.5-0.5-0.9-0.6l0,0l0,0c-0.4-0.2-0.5-0.6-0.8-0.9
	c-0.6-0.8-1.2-1.7-1.9-2.4c-0.5-0.5-1-1-1.4-1.6c-0.2-0.2-0.2-0.5-0.3-0.7c0-0.5-0.1-0.5-0.5-0.3c-0.2,0.1-0.4,0.1-0.6,0
	c-0.1-0.1-0.2-0.1-0.2-0.1l0,0c-0.2-0.2-0.4-0.4-0.6-0.5l0,0l0,0c0-0.2-0.1-0.4-0.2-0.5C70.2,40,70,39.9,70,39.7
	c-0.3-0.7-0.9-1.2-1.2-1.9l0,0l0,0c-0.3-0.4-0.6-0.8-1-1.1c-0.3-0.3-0.5-0.6-0.7-0.9l0,0c0,0,0.1-0.1,0.1-0.1
	c0.3-0.1,0.3-0.3,0.3-0.5c0-0.1-0.1-0.3,0-0.5c0.1-0.4,0.1-0.4-0.3-0.4c0,0,0,0-0.1,0c0.1-0.4,0-0.5-0.3-0.6c-0.1,0-0.2-0.1-0.3-0.1
	c-0.1,0.1,0,0.2,0,0.2c0,0.1,0,0.1,0,0.2c-0.1,0-0.2,0-0.2-0.1c-0.1-0.2-0.2-0.3-0.3-0.5c-0.1-0.1,0-0.2,0.1-0.3
	c0.1-0.1,0.3-0.1,0.5-0.3c-0.3-0.3-0.8-0.5-0.6-1.1c0-0.1-0.1-0.2-0.2-0.2c-0.1,0-0.2,0-0.3,0.1c0,0.1,0,0.2-0.2,0.1
	c0-0.2-0.2-0.4-0.4-0.5c-0.2-0.1-0.3-0.2-0.3-0.4c-0.1-0.2-0.2-0.4-0.4-0.5c-0.4-0.3-0.4-0.6-0.2-1c0,0,0,0,0-0.1
	c0.1-0.1,0-0.3-0.2-0.2c-0.4,0.1-0.6-0.2-0.8-0.4C63,28.5,63,28.3,63,28.2c0-0.2,0.3-0.3,0.3-0.5c0-0.2-0.3-0.2-0.3-0.5
	c0-0.1-0.1-0.2-0.2-0.3c-0.1-0.1-0.2-0.2-0.3-0.4c-0.1-0.2-0.2-0.5-0.3-0.7c-0.1-0.2-0.2-0.3,0.1-0.5c0.1-0.1,0.1-0.2,0-0.2
	c-0.1-0.2-0.2-0.5-0.5-0.5c-0.3,0-0.5-0.2-0.6-0.4c-0.1-0.1-0.1-0.3,0-0.4c0.2-0.2,0.1-0.3,0-0.4c-0.3-0.3-0.5-0.7-0.6-1.1
	c0-0.3-0.1-0.5-0.3-0.6c-0.1-0.1-0.1-0.1-0.2-0.1c-0.1,0.1-0.1,0.2,0,0.3c0,0,0.1,0.1,0.1,0.1c0.2,0.3,0.1,0.3-0.2,0.4
	c-0.1,0-0.2,0-0.4,0c0,0,0,0,0,0v0l0,0h0c-0.1-0.3-0.2-0.6-0.3-0.9c0-0.1-0.1-0.2-0.2-0.3l0,0c-0.1-0.1-0.1-0.2-0.2-0.4l0,0
	c0-0.1,0-0.2-0.1-0.4c-0.2-0.5-0.3-0.9-0.4-1.4c0-0.1,0-0.2-0.1-0.4c-0.3-0.5-0.4-1.1-0.6-1.7c-0.2-0.6-0.1-1.2-0.3-1.8
	c0-0.1,0-0.1,0-0.2c0.2-0.3,0.2-0.3-0.1-0.5c-0.1,0-0.2-0.1-0.2-0.1l0,0c0-0.3-0.1-0.6-0.1-0.9c0-0.1-0.1-0.3-0.2-0.3
	c-0.2,0-0.2,0.2-0.3,0.3c0,0,0,0-0.1,0c-0.1-0.1-0.1-0.3-0.3-0.4l0,0c0-0.2,0-0.4-0.1-0.5c0-0.3-0.1-0.6-0.1-0.8
	c0.2-0.9-0.1-1.9,0.3-2.7c0,0,0-0.1,0-0.1c0-0.2-0.1-0.4-0.3-0.4c-0.2-0.2-0.2-0.4,0-0.6C56.1,7.5,56.1,7.3,56,7
	c-0.1-0.3-0.2-0.6-0.4-0.9c-0.1-0.2-0.2-0.2-0.4-0.1c-0.1,0.1-0.2,0.2-0.4,0.3c-0.1-0.1-0.3-0.1-0.5-0.1l0,0c0-0.5-0.2-0.8-0.6-1
	C53.4,5.1,52.9,5,52.4,5c-0.5,0.1-1,0.2-1.5,0.3l0,0c-0.5,0-0.9,0.1-1.3,0c-0.3,0-0.6,0.1-0.7,0.4c-0.2,0.3-0.5,0.5-0.8,0.7
	c-0.1,0-0.1,0.1-0.2,0.1c-0.1,0.2-0.2,0.4-0.2,0.6c0,0.3-0.1,0.6-0.1,0.9c-0.2,0.8-0.3,1.6-0.5,2.4c-0.1,0.9-0.3,1.8-0.4,2.6
	c0,0.4-0.2,0.7-0.1,1.1c0,0.1-0.1,0.1-0.1,0.2c-0.2,0.9-0.7,1.6-1.1,2.4c-0.1,0.2-0.2,0.4-0.3,0.6l0,0l0,0c-0.3,0.5-0.6,1.1-0.8,1.6
	c-0.1,0.3-0.3,0.6-0.3,0.9l0,0c-0.1,0.1-0.2,0.2-0.2,0.4c0,0.5-0.3,1-0.6,1.4c-0.1,0.1-0.1,0.2-0.1,0.3c-0.2,0.7-0.6,1.3-0.9,1.9
	C42,24,41.9,24,41.7,24c-0.2,0-0.3,0-0.4,0.1l0,0c-0.3,0.4-0.2,0.8-0.4,1.2c-0.1,0.3-0.3,0.6-0.3,1c0,0.7-0.3,1.4-0.8,1.9l0,0
	c-0.2,0.2-0.4,0.4-0.6,0.6c-0.3,0.5-0.7,1.1-1,1.6l0,0c-0.1,0-0.1,0.1-0.2,0.2c-0.3,0.5-0.6,1-0.9,1.5c-0.4,0.6-0.8,1.1-1.2,1.6
	c-0.1,0.1-0.2,0.2-0.3,0.4l0,0c0,0,0,0-0.1,0l0,0c-0.3,0.1-0.4,0.4-0.5,0.6l0,0l0,0c-0.4,0.3-0.8,0.7-1,1.1l0,0l0,0
	c-0.2,0.3-0.6,0.6-0.8,0.9l0,0l0,0c-0.1,0.1-0.2,0.2-0.3,0.3c-0.7,0.9-1.5,1.7-2.2,2.6c-0.5,0.6-1.1,1-1.5,1.6c-0.1,0-0.2,0-0.2,0.1
	c-0.5,0.6-1.1,1.1-1.6,1.7l0,0l0,0l0,0l0,0c-0.4,0.2-0.5,0.6-0.8,0.8c-0.3,0.1-0.4,0.3-0.6,0.5c-0.4,0.4-0.7,0.9-1.2,1.2
	c-0.3,0.2-0.4,0.4-0.5,0.7l0,0c-0.2,0.3-0.4,0.6-0.6,0.9c-0.1,0.1-0.1,0.3,0,0.5c0.2,0.5,0.1,1.1,0.2,1.6c-0.1,0.3-0.2,0.7-0.2,1.1
	c0,1.2,0.2,2.5,0.5,3.7c-0.1,0.3,0.1,0.7-0.1,1c0,0,0,0.1,0,0.2c0.1,0.2,0.2,0.3,0.4,0.4l0,0l0,0c0,0.1,0,0.1,0,0.2
	c0,0.1,0,0.1,0,0.2c0.2,0.4,0.3,0.8,0.3,1.3c0,0.2,0.1,0.3,0.3,0.5c0,0.3,0,0.5,0.1,0.7c0,0.2,0,0.5,0.1,0.7
	c0.1,0.3,0.1,0.5,0.2,0.8c0.1,0.7,0.4,1.4,0.5,2.2c0.1,0.3,0.2,0.7,0.2,1c0,0.1,0,0.2,0.1,0.3c0.1,0.3,0.2,0.7,0.4,1l0,0
	c0,0.1,0,0.1,0,0.2l0,0c0,0.7,0.1,1.4,0.3,2c0,0.1,0,0.1,0,0.2l0,0l0,0l0,0c0.1,0.6,0.3,1.2,0.4,1.8c0,0.2,0.1,0.5,0.2,0.7l0,0
	c0,0,0,0,0,0.1c0,0.1,0.1,0.3,0.2,0.4l0,0l0,0c0,0.1,0,0.2,0,0.4c0.1,0.4,0.2,0.7,0.3,1c0.1,0.4,0.2,0.9,0.3,1.4
	c0,0.2,0.1,0.4,0.3,0.4l0,0l0,0c0.2,0.4,0.1,0.8,0.4,1.2c0,0,0,0.1,0,0.1c0.1,0.8,0.5,1.5,0.6,2.3c0,0.2,0.1,0.4,0.2,0.7
	c0.1,0.4,0.1,0.9,0.3,1.3c0.1,0.3,0.2,0.4,0.5,0.4c0.2,0,0.3,0.1,0.4,0.3c0.2,0.3,0.2,0.6,0.4,0.9l0,0c0,0,0,0,0,0.1l0,0
	c-0.1,0.4,0.1,0.8,0.1,1.2c0,0.3,0.1,0.5,0.2,0.7c0.1,0.3,0.3,0.6,0.3,0.9c0,0.2,0,0.4,0.1,0.5c0.2,0.9,0.5,1.7,0.8,2.6
	c0.1,0.4,0.2,0.8,0.4,1.1c0.1,0.3,0.3,0.6,0.4,1c0.1,0.2,0.1,0.5,0.3,0.6c0.1,0.5,0.1,0.5-0.4,0.6c-0.1,0-0.2,0-0.3,0
	c-0.6,0-1.1,0-1.7,0.1c-0.9,0.2-1.7,0-2.6,0.2c-0.8,0.2-1.6,0.1-2.3,0.2c-0.7,0.1-1.4,0.2-2.2,0.3c-0.5,0.1-1.1,0-1.6,0.2
	c-0.3,0.1-0.6,0.1-0.9,0l0,0c-0.2-0.2-0.2-0.5-0.4-0.8l0,0c0-0.4-0.4-0.3-0.6-0.4l0,0l0,0c0,0-0.1,0.1-0.1,0.1c0,0.4-0.1,0.7,0.1,1
	c0.1,0.2,0.1,0.3,0,0.4c-0.2,0.1-0.2,0.3-0.2,0.5c0,0.2,0,0.3,0.1,0.5c0.1,0.2,0.4,0,0.5,0.1c0,0,0,0.1,0,0.1
	c-0.1,0-0.1,0.1-0.2,0.1c-0.2,0.2-0.3,0.4-0.2,0.6c0,0.1,0.1,0.2,0.2,0.1c0.3-0.1,0.5,0,0.8,0.1l0,0l0,0c0,0,0.1,0,0.2,0.1
	c0,0,0.1,0.1,0.1,0.1c0,0,0.1,0,0.1,0c0,0,0,0,0,0c0.1,0.2,0.2,0.2,0.4,0.1c0.1,0,0.1-0.1,0.2-0.1c0.2,0,0.4,0,0.5,0.1
	c0.3,0.1,0.5,0.1,0.8,0c1-0.2,2,0,3-0.3c0.2,0,0.4,0,0.6,0.1c0.2,0.1,0.3,0.1,0.5,0.1c0.3-0.2,0.7,0,1.1-0.1
	c1.2-0.2,2.4-0.3,3.6-0.2c0.1,0,0.2,0,0.3-0.1c0,0,0.1-0.1,0.1-0.1c0.1,0,0.2,0,0.3-0.1c0.3-0.2,0.6-0.2,0.9-0.2
	c0.2,0,0.4,0,0.5-0.1c0,0,0,0.1,0.1,0.1c0.5,0.3,1,0.1,1.4-0.1c0,0.1,0.1,0.2,0.2,0.2l0,0c0.1,0.4,0.3,0.5,0.7,0.5
	c0.3-0.3,0.3-0.3-0.1-0.6c-0.2-0.1-0.4-0.2-0.5-0.3c-0.1-0.1-0.1-0.1-0.2-0.2l0,0c0,0,0,0,0-0.1c0.1,0,0.3-0.1,0.4-0.2
	c0.3-0.3,0.7-0.4,1.2-0.3l0,0c0.4-0.2,0.5-0.7,0.2-1.1c-0.4-0.5-0.6-1.1-0.7-1.6c0-0.1-0.1-0.2-0.1-0.3c0,0,0-0.1,0-0.1
	c-0.1-0.2-0.3-0.4-0.3-0.7c-0.1-0.3-0.3-0.6-0.3-0.9c-0.1-0.2-0.2-0.5-0.2-0.7c-0.4-1.2-1.1-2.3-1.2-3.7c0-0.1,0-0.2-0.1-0.3
	c-0.8-2-1.6-4-2-6.1c-0.1-0.6-0.1-1.3-0.3-1.9c0-0.1-0.1-0.3-0.2-0.4c0,0-0.1-0.1-0.1-0.1c-0.1-0.5-0.1-0.9,0-1.3
	c0-0.1,0-0.2-0.1-0.2c-0.2-0.2-0.3-0.5-0.5-0.6l0,0c0,0,0-0.1,0-0.1c0,0,0,0.1,0,0.1c0-0.2,0-0.3-0.1-0.4c0,0,0,0-0.1,0l0,0l0,0l0,0
	c-0.3-0.6-0.5-1.2-0.7-1.9c0-0.2,0-0.4-0.1-0.5c-0.3-0.6-0.6-1.2-0.8-1.9c0-0.1-0.1-0.2-0.2-0.3l0,0c-0.1-0.3-0.2-0.7-0.3-1.1
	c-0.2-0.7-0.4-1.5-0.7-2.2c0-0.1-0.1-0.3-0.1-0.4c-0.1-0.7-0.3-1.4-0.5-2.1c0-0.4-0.1-0.9-0.1-1.3c0-0.1,0-0.2-0.1-0.3
	c-0.3-0.5-0.4-1-0.5-1.5c-0.1-0.5-0.3-0.9-0.2-1.4c0-0.1-0.1-0.3-0.2-0.4l0,0l0,0c-0.1-0.1-0.1-0.2-0.2-0.4c0-0.2-0.1-0.5-0.2-0.6
	l0,0l0,0l0,0l0,0l0,0c0,0,0,0,0,0c0,0,0,0,0.1-0.1c-0.2-0.8-0.2-1.6-0.5-2.4c-0.1-0.1-0.1-0.2-0.1-0.3c-0.1-0.4,0-0.8-0.3-1.1
	c0-0.2,0-0.3-0.1-0.5c0,0,0.1,0,0.1-0.1c0.1-0.2,0.1-0.4,0.1-0.5c0-0.4-0.1-0.8,0-1.2c0.1-0.5-0.1-0.6-0.6-0.7c0.2,0,0.4,0,0.5-0.2
	c0,0,0.1,0,0.1,0c0.6-0.6,1.1-1.2,1.7-1.8c0.7-0.7,1.3-1.4,2.1-2.1c0.1-0.1,0.2-0.3,0.3-0.5c0-0.1,0-0.2,0.1-0.3
	c0.1-0.1,0.1-0.1,0.2-0.2c0.5-0.5,1.1-1,1.6-1.5c0.7-0.8,1.6-1.5,2.3-2.2c0,0,0.1,0,0.1,0l0,0c0.1-0.2,0.2-0.3,0.3-0.5l0,0l0,0l0,0
	l0,0c0.3-0.1,0.7-0.3,0.9-0.6c0.2-0.2,0.5,0,0.8-0.2c-0.1-0.2-0.4-0.3-0.1-0.5c0.3-0.2,0.2-0.3-0.2-0.4c-0.2,0-0.1-0.1-0.1-0.2l0,0
	c0.4-0.4,0.9-0.3,1.3-0.2c-0.1-0.4,0-0.5,0.4-0.5c0.2,0,0.3,0,0.4-0.1c-0.4-0.4-0.4-0.4,0-0.8c0,0,0.1-0.1,0.1-0.1
	c0.2-0.1,0.3-0.3,0.2-0.5c0,0,0.1,0,0.1-0.1c0.1-0.1,0.1-0.2,0.2-0.3c0.1-0.1,0.2-0.1,0.3-0.1c0.2,0,0.3-0.1,0.4-0.3
	c0-0.1,0.1-0.2,0.2-0.3c0.5-0.1,0.6-0.5,0.8-0.9l0,0c0.5-0.6,1-1.1,1.1-1.9c0-0.1,0.1-0.2,0.1-0.2c0.2-0.1,0.3-0.4,0.4-0.6
	c0.4-0.7,0.7-1.4,1.1-2.1c0.1-0.2,0.2-0.4,0.3-0.7c0.1-0.1,0.1-0.2,0.2-0.3c0,0,0-0.1,0-0.1c0-0.2,0.2-0.3,0.3-0.5
	c0.1-0.1,0.1-0.2,0.2-0.4l0,0l0,0c0.5-0.1,0.6-0.6,0.7-0.9c0.2-0.4,0.2-0.9,0.4-1.3c0.1-0.2,0.1-0.3,0-0.5c-0.2-0.2-0.2-0.3,0.1-0.3
	c0.1,0,0.3,0,0.3-0.1c0-0.3,0.2-0.5,0.1-0.8c-0.1-0.2,0-0.3,0.1-0.4c0.2-0.3,0.4-0.6,0.5-0.9c0.1-0.1,0.2-0.2,0.3-0.3
	c0.2-0.6,0.5-1.1,0.8-1.6c0-0.1,0-0.2,0-0.3c0.2-0.5,0.7-1,0.7-1.6c0-0.1,0.1-0.2,0.1-0.2c0.3-0.4,0.4-0.8,0.5-1.2
	c0-0.1,0-0.2-0.1-0.3c-0.1,0-0.3,0-0.3,0.1c-0.1,0.2-0.2,0.4-0.2,0.6c0,0.1,0,0.2-0.2,0.2c0-0.2,0.1-0.4,0-0.5
	c0-0.1,0.1-0.3,0.1-0.4c0.1-0.1,0.2-0.1,0.3-0.2c0,0,0-0.1,0.1-0.1c0.1-0.2,0.1-0.5,0-0.7c0,0,0,0,0,0c0-0.1,0-0.2,0.1-0.4l0,0
	c0.1-0.2,0.1-0.4,0.2-0.6c0-0.2,0.1-0.5,0.1-0.7c0.1-0.2,0.1-0.4,0.1-0.6c0.1-0.3,0.1-0.6,0.2-0.9c0,0,0-0.1,0-0.1c0,0,0,0,0,0
	c0.1-0.2,0.1-0.4,0.1-0.6l0,0c0.1-0.3,0.1-0.6,0.1-0.9c0-0.2,0-0.3,0.1-0.5c0.1-0.2,0.1-0.4,0-0.6c0.1,0,0.2,0,0.3,0
	c0.2,0.2,0.3,0.5,0.2,0.8c0,0.1,0,0.2,0,0.3c0,0.7,0,1.3-0.1,2c0,0.1,0,0.3-0.1,0.4c-0.2,0.7-0.2,1.3-0.2,2l0,0l0,0
	c0,0.2-0.1,0.4-0.1,0.5c0,1.1-0.2,2.2-0.2,3.4l0,0c0,0.1-0.1,0.2-0.1,0.3c0,0.9,0,1.8,0,2.6c0.1,1.2,0,2.4,0.1,3.6
	c0,0.4-0.1,0.9,0.1,1.3l0,0c-0.1,0.9-0.2,1.7-0.2,2.6c0,0.5-0.1,1-0.1,1.5c0,0.8-0.1,1.6-0.1,2.4c0,0.4,0.1,0.7,0,1.1
	c-0.1,1.1,0,2.2,0,3.2l0,0c0.1,0.4-0.1,0.9,0,1.3c0.1,0.6,0.2,1.2,0.3,1.8c0.2,0.7,0.1,1.5,0,2.3c0,0-0.1,0.1-0.1,0.1
	c-0.3,0-0.6,0-0.9,0.2l0,0c-0.5,0.1-0.9,0.5-1.1,1c-0.1,0.2-0.2,0.4-0.4,0.5c-0.1,0.3-0.2,0.6-0.3,0.9c-0.2,0.4-0.3,0.8-0.3,1.3
	c0,0.7,0.2,1.3,0.5,1.8c0.1,0.2,0.2,0.3,0.4,0.4c0.6,0.3,1.3,0.5,1.8,0.9l0,0l0,0c0.3,0.1,0.5,0.1,0.8,0.1c0.5,0.3,0.9,0.2,1.1-0.3
	c0.1-0.2,0.2-0.4,0.3-0.5c0.2-0.1,0.2-0.4,0.3-0.6l0,0l0,0c0,0,0.1-0.1,0.1-0.1c0-0.1,0.1-0.1,0-0.2c0-0.2,0.1-0.3,0.2-0.5
	c0.2-0.6,0.4-1.1,0.3-1.8c0-0.5-0.1-1-0.1-1.4c0-0.2,0-0.4-0.1-0.6l0,0c0-0.5-0.3-0.9-0.7-1.1c-0.2-0.1-0.2-0.3-0.2-0.5
	c0-0.2,0-0.3-0.2-0.4c-0.1,0-0.1-0.2-0.1-0.3c0-0.1,0-0.3-0.1-0.4l0,0c0-0.1,0-0.2,0-0.3c0.1-0.3,0.1-0.7,0.1-1.1l0,0l0,0
	c0,0,0.1-0.1,0.1-0.1l0,0c0.2-0.2,0.1-0.4,0-0.5l0,0l0,0l0,0c-0.1-0.1-0.1-0.2-0.1-0.4c0-1.1,0.1-2.2,0.1-3.3c0-0.6,0-1.1,0.1-1.7
	c0.1-0.9,0.2-1.8,0.3-2.7c0.1-0.6,0.2-1.1,0.3-1.7c0-0.4,0-0.8,0.4-1.1c0,0,0.1-0.1,0.1-0.1c0.1-0.1,0.1-0.2,0-0.3
	c-0.1-0.1-0.2,0-0.3,0c-0.2,0-0.3,0.2-0.5,0.2c0-1.2,0-2.4,0.2-3.6c0-0.2,0-0.4,0.3-0.5c0.1,0,0.1-0.2,0.1-0.3
	c-0.1-0.3-0.1-0.5,0.2-0.7c0.1-0.1,0.1-0.2,0.1-0.3c0,0,0-0.1-0.1-0.1c0,0-0.1,0-0.1-0.1c-0.4-0.2-0.4-0.2-0.4-0.6
	c0-0.3,0.1-0.6,0.1-0.9c0-0.3,0-0.6,0.2-0.8c0-0.1,0.1-0.2,0.1-0.3c-0.1-0.2,0-0.4,0-0.6c0-0.2,0.1-0.4-0.1-0.5
	c-0.2,0-0.1,0.2-0.2,0.4c0,0,0,0-0.1,0c0-0.2,0-0.4,0-0.6c0-0.1,0-0.2,0.1-0.2c0.3,0,0.3-0.3,0.3-0.5l0,0l0,0c0-0.1,0-0.2,0-0.3
	c0.2-1.4,0.5-2.9,0.7-4.3c0-0.2,0.1-0.4,0-0.6c0,0,0,0,0,0c0.2-0.2,0.2-0.4,0.2-0.6c0,0,0-0.1,0.1-0.1c0.2,0.2,0.2,0.4,0.2,0.7
	c0.1,0.6,0.2,1.1,0.4,1.7c0,0.1,0,0.1,0,0.2c0,0,0,0.1,0,0.1c0,0.2,0.1,0.4,0.2,0.5c0,0.3,0.1,0.6,0.2,1c0,0,0,0.1,0,0.1
	c0.2,0.4,0,0.9,0.4,1.3c0,0,0.1,0,0.1,0.1l0,0c0,0.4,0.2,0.9,0.4,1.2c0.2,0.3,0.3,0.7,0.3,1.1c0,0.2,0.1,0.3,0.2,0.4
	c0.1,0.2,0.2,0.4,0.1,0.7c-0.1,0.3,0,0.4,0.2,0.5c0.2,0.1,0.3,0.3,0.4,0.6c0.2,0.6,0.4,1.3,0.7,1.9l0,0l0,0c0.3,0.8,0.4,1.7,0.8,2.4
	c0,0.1,0.1,0.2,0.1,0.3c0,0.2,0.1,0.3,0.2,0.4c0,0.1,0,0.3,0.1,0.4c0.3,0.4,0.4,0.9,0.6,1.3l0,0l0,0l0,0l0,0l0,0
	c0.1,0.5,0.4,0.7,0.7,1c0.2,0.1,0.4,0.3,0.4,0.5c0.2,0.5,0.5,1.1,0.8,1.6l0,0c0.2,0.7,0.7,1.2,1,1.9c0.2,0.3,0.3,0.7,0.5,1
	c0.4,0.6,0.8,1.2,1.2,1.9c0.2,0.3,0.3,0.6,0.5,0.8c0.2,0.2,0.3,0.4,0.4,0.6c0,0.1,0.1,0.2,0.2,0.3c0.2,0.1,0.3,0.4,0.5,0.5
	c0.3,0.3,0.5,0.7,0.7,1c0.1,0.1,0.1,0.2,0.2,0.3c0,0.1,0,0.2,0,0.3c0.1,0.3,0.2,0.5,0.5,0.7c0.1,0,0.2,0,0.2,0.1
	c0.1,0.2,0.3,0.3,0.4,0.5c0,0.1,0,0.2,0,0.3c0,0,0,0.1,0.1,0.1c0.1,0.2,0.3,0.2,0.3,0.4c0.3,0.4,0.6,0.8,1,1.1
	c0.1,0.1,0.1,0.2,0.2,0.3c0.4,0.5,0.9,1,1.3,1.5c0.1,0.1,0.2,0.1,0.3,0.2l0,0l0,0c0.1,0.1,0.1,0.2,0.2,0.3c0.2,0.3,0.4,0.5,0.6,0.8
	c0,0.1,0.1,0.1,0.1,0.2c0,0,0,0.1,0.1,0.1c0.1,0.2,0.3,0.4,0.5,0.5c0.1,0.1,0.1,0.2,0.2,0.3c0.5,0.5,1,1.1,1.6,1.5
	c0.6,0.4,1.3,0.7,1.4,1.6c0,0,0,0,0,0C75,50,75,50.1,75,50.3l0,0c-0.1,0.3-0.3,0.7-0.5,1c-0.3,0.8-0.6,1.5-1,2.3
	c-0.1,0.2-0.2,0.4-0.3,0.7c-0.2,0.6-0.4,1.1-0.7,1.7c-0.5,1.1-1,2.2-1.5,3.2c-0.1,0.2-0.2,0.4-0.2,0.6c0,0,0,0,0,0c0,0-0.1,0-0.1,0
	c-0.1,0.1-0.2,0.2-0.2,0.3c0,0.1,0,0.2,0,0.3c0,0.1-0.1,0.3-0.1,0.4c-0.2,0.4-0.3,0.9-0.4,1.4C70,62.5,70,62.8,69.8,62.9L69.8,62.9
	L69.8,62.9L69.8,62.9 M70.3,43.9L70.3,43.9L70.3,43.9L70.3,43.9L70.3,43.9z M50.1,24.1L50.1,24.1L50.1,24.1L50.1,24.1z M50.2,20.3
	C50.2,20.3,50.2,20.3,50.2,20.3L50.2,20.3C50.2,20.3,50.2,20.3,50.2,20.3L50.2,20.3z M50.1,24.1L50.1,24.1L50.1,24.1L50.1,24.1
	L50.1,24.1z M50.1,24.1C50.1,24.1,50.1,24.1,50.1,24.1L50.1,24.1C50.1,24.1,50.1,24.1,50.1,24.1z M26.1,48.1
	C26.1,48.1,26.2,48.1,26.1,48.1L26.1,48.1C26.2,48.1,26.1,48.1,26.1,48.1z"/>
</svg>
