<?xml version="1.0" encoding="utf-8"?>
<!-- Generator: Adobe Illustrator 21.1.0, SVG Export Plug-In . SVG Version: 6.00 Build 0)  -->
<svg version="1.0" id="Layer_1" xmlns="http://www.w3.org/2000/svg" xmlns:xlink="http://www.w3.org/1999/xlink" x="0px" y="0px"
	 viewBox="0 0 342 171.1" style="enable-background:new 0 0 342 171.1;" xml:space="preserve">
<style type="text/css">
	.st0{fill:#FFFFFF;}
</style>
<path class="st0" d="M34.8,44.2c1.1,1.7,1.6,5.2,1.7,12.4v0v0.1v0.4v56.6c0,7.6-0.6,12.2-1.7,14c-1.1,1.6-2.5,3.6-5.5,4.4
	c-2.1,0.3-2.2,0.5-6.3,0.3v3.4h50.5v-3.5c-7.7-0.1-13-1.9-14.9-4.7c-1-1.5-1.7-4.6-1.9-9.4v-29c17.1,16.6,33.2,32.3,47.1,46.5h70.6
	v-3.4c-7.7-0.1-13-2-14.9-4.8c-1-1.5-1.7-4.6-1.9-9.4v-29c17.1,16.6,32.7,32.3,46.7,46.5h52.5l12.5-0.1c13.5,0,24.6-1.8,32.8-5.6
	c8.5-3.9,16.5-11.9,16.8-26.9c0.1-7.6-3-14.8-8.9-19.4c-4-3.1-9.3-5.3-15.2-6.6h0c-0.3,0-9-2.4-23.9-2.1h-12.3V42.8
	c0-2.1,0.9-3.1,2.7-3.1h23.1c8.8,0,13.4-0.8,17.3,2.5c2.2,1.9,2.7,2.9,3.5,5.8c0.3,2,0.5,3.3,0.5,7.3l6.8,0V39.6v-4.5h-128v3.4
	c9.9-0.3,11.9,2,11.3,4.4c-0.4,1.8-5.6,7.4-18.5,19.2c-8.4,7.7-14.9,15.5-19.6,19.3V35.1H83.6v3.6c9.9-0.3,11.7,1.8,11.1,4.2
	c-0.5,1.8-5.3,7.4-18.3,19.2C68,69.8,61.5,77.6,56.8,81.4V35.1H23.1v3.1v0.5C31,38.5,33.4,42.2,34.8,44.2z M258.5,79.8h11.4
	c9.5,0,17.1,1.9,22.7,5.6c6.1,4.2,9.3,8.8,9.2,19.6c-0.1,12.3-3.4,18.8-10.1,22.1c-4.9,2.3-13,3.5-24.2,3.5h-6
	c-2-0.3-2.9-1.2-2.9-2.6V79.8z M214.1,40.8c2.2-0.7,6.4-1.4,11.7-1.6c8.2,0.4,9.8,3.3,11,5c1.1,1.7,1.6,5.2,1.7,12.4v0v0.1v0.4v56.6
	c0,5.6-0.3,9.6-0.9,12c-0.2,0.9-0.5,1.5-0.8,2c-1,1.5-2.8,2.7-5.4,3.4c-0.2,0-0.7,0.1-0.7,0.1c-2.9,0.1-6.4,0-10.2-1.7
	c-0.7-0.4-1.4-0.7-2.1-1.2c-4.4-2.8-12.7-10.4-25.5-22.9l-0.2-0.2c-2.9-2.9-11.3-11.3-25.2-25.4C192.6,57.4,208,42.9,214.1,40.8z
	 M113.3,40.8c2.2-0.7,6.2-1.4,11.4-1.6c8.3,0.4,9.9,3.3,11.1,5c1.1,1.7,1.7,5.2,1.7,12.4v0v0.1v0.4v56.6c0,7.6-0.6,12.2-1.7,14
	c-1,1.6-3,2.8-6,3.5h-0.2c-3,0.1-6.2,0-10-1.7c-0.7-0.4-1.4-0.7-2.1-1.2c-4.4-2.8-13.1-10.4-25.8-22.9l-0.2-0.2
	c-2.9-2.9-11.1-11.3-25-25.4C91.8,57.4,107.3,42.9,113.3,40.8z"/>
</svg>
